<?xml version="1.0" standalone="no"?>
<!DOCTYPE svg PUBLIC "-//W3C//DTD SVG 1.1//EN" "http://www.w3.org/Graphics/SVG/1.1/DTD/svg11.dtd" >
<svg xmlns="http://www.w3.org/2000/svg">
<metadata></metadata>
<defs>
<font id="andarilho_fontnormal" horiz-adv-x="1132" >
<font-face units-per-em="2048" ascent="1638" descent="-410" />
<missing-glyph horiz-adv-x="1048" />
<glyph horiz-adv-x="0" />
<glyph unicode="&#xd;" horiz-adv-x="681" />
<glyph unicode=" "  horiz-adv-x="1048" />
<glyph unicode="&#x09;" horiz-adv-x="1048" />
<glyph unicode="&#xa0;" horiz-adv-x="1048" />
<glyph unicode="!" horiz-adv-x="677" d="M551 1614l16 -772h64l16 772h-96zM561 449h80v94h-80v-94z" />
<glyph unicode="&#x22;" horiz-adv-x="829" d="M528 1292h45v428h-45v-428zM748 1292h43v428h-43v-428z" />
<glyph unicode="#" horiz-adv-x="1384" d="M346 852h254h21l-5 -16l-16 -131h57l25 139l2 8h10h221h21l-4 -16l-64 -387h62l61 395l4 8h9h280l6 47h-266h-20l2 19l38 231l5 8h8h256l6 47h-246h-20l4 19l22 141h-57l-27 -152l-4 -8h-8h-221h-21l2 19l66 391h-61l-66 -402v-8h-12h-289l-6 -47h276h23l-4 -18l-39 -230 l-2 -10h-8h-271zM694 899l2 19l35 231l4 8h8h222h20l-2 -18l-39 -230l-2 -10h-10h-221h-17z" />
<glyph unicode="$" horiz-adv-x="983" d="M346 1319q0 -43 10 -74q8 -31 33 -65q4 -4 15.5 -16.5t19.5 -20.5q2 -2 33 -27q47 -35 162.5 -105.5t168.5 -113.5q33 -33 56 -72q25 -39 24 -88q0 -53 -18 -96q-23 -47 -55 -78q-39 -33 -90 -49q-35 -10 -79 -13t-86 1t-87 9t-80 11v-55q23 -2 88 -10t97 -10.5t83 2 t94 18.5q47 12 109 61q49 47 71 97q23 57 23 123q0 51 -12 77q-6 37 -31 66q-8 16 -37 41q-8 10 -33 26q-49 39 -160.5 105.5t-164.5 110.5q-49 45 -64 69q-27 43 -26 82q0 51 20 86q16 37 57 68q31 20 88 39q61 14 115 14h15v49h-15q-82 0 -147 -16q-63 -18 -109 -54 q-41 -29 -67 -79q-20 -55 -21 -113zM551 283h65v106h-65v-106zM551 1653h65v106h-65v-106z" />
<glyph unicode="%" horiz-adv-x="1558" d="M346 1331q0 -90 45 -149.5t133 -59.5q90 0 135.5 58.5t45.5 150.5t-46.5 152.5t-134.5 60.5t-133 -59.5t-45 -153.5zM403 1333.5q0 69.5 30 117.5t91 48q123 0 123 -166q0 -168 -123 -168q-61 0 -91 49.5t-30 119zM561 449h86l606 1171h-82zM1100 737.5q0 -98.5 49 -163 t143 -64.5t143.5 64.5t49.5 163t-49.5 163t-143.5 64.5t-143 -64.5t-49 -163zM1163 737.5q0 73.5 31.5 127t101.5 53.5q127 0 127 -181q0 -176 -127 -176q-70 0 -101.5 51.5t-31.5 125z" />
<glyph unicode="&#x26;" horiz-adv-x="1257" d="M346 721q2 -76 53 -146q47 -68 148 -106q211 -88 457 166q149 -168 153 -168l41 37l-154 172q74 84 74 94l-47 33l-18 -29q-20 -27 -47 -53l-336 375q74 55 111.5 98t60.5 102q20 55 8 131q-10 47 -41 101q-35 51 -86 69q-47 16 -100 9q-66 -12 -107 -54 q-47 -39 -70 -104q-20 -63 -6 -123q12 -70 62 -127q12 -16 82 -94l-9 -6q-8 -6 -30.5 -23.5t-40.5 -30.5q-90 -63 -131 -170q-33 -74 -27 -153zM403 725q-2 59 21 127q39 94 117 147q55 43 67 52l15 8l342 -383q-217 -227 -398 -154q-72 27 -121 86q-37 47 -43 117z M496 1333q-8 47 6 99q12 43 49 75q33 29 84 39q29 6 67 -2q37 -14 60 -47q23 -35 33 -80q10 -51 -4 -100q-18 -51 -54.5 -89t-105.5 -91q-16 20 -46 53t-38 43q-43 51 -51 100z" />
<glyph unicode="(" horiz-adv-x="856" d="M500 1049q0 -328 262 -727h55q-80 141 -126 235t-88 232.5t-42 259.5q0 123 42 262t88 232.5t126 236.5h-55q-262 -399 -262 -731z" />
<glyph unicode=")" horiz-adv-x="892" d="M535 322h59q258 393 258 727q0 338 -258 731h-59q82 -143 129 -236.5t89 -233t42 -261.5q0 -121 -43 -260.5t-88.5 -229.5t-128.5 -237z" />
<glyph unicode="*" horiz-adv-x="1167" d="M504 1466l248 -69l-185 -180l37 -43l199 186l127 -236l49 27l-129 240l262 63l-12 57l-264 -65l6 272h-54l-6 -272l-262 78z" />
<glyph unicode="+" horiz-adv-x="1243" d="M346 983h389h8v-6v-389h48v389v6h8h387v49h-387h-8v10v385h-48v-385v-10h-8h-389v-49z" />
<glyph unicode="," horiz-adv-x="739" d="M514 303h68l123 285h-76z" />
<glyph unicode="-" horiz-adv-x="905" d="M483 999h379v60h-379v-60z" />
<glyph unicode="." horiz-adv-x="679" d="M547 449h102v112h-102v-112z" />
<glyph unicode="/" horiz-adv-x="1067" d="M461 416h67l490 1317h-66z" />
<glyph unicode="0" horiz-adv-x="1118" d="M346 1018q0 -143 23 -260q23 -109 71 -183q37 -68 111 -112q25 -12 39 -14l20 61q-16 12 -26 14q-51 37 -88 107q-35 78 -50 166q-18 92 -18 221q0 123 18 221q12 82 50 166q41 71 88 102q55 37 124.5 37t116.5 -37q49 -29 90 -102q37 -76 54 -166q16 -104 16 -221 t-16 -221q-18 -94 -54 -166q-39 -74 -90 -103q-2 -6 -8 -6l25 -67q6 2 16 12q72 37 113 108q45 68 71 187q23 100 23 256q0 154 -23 254q-27 115 -71 182q-39 72 -113 111q-59 37 -149 37q-96 0 -158 -37q-72 -41 -111 -111q-51 -76 -71 -182q-23 -117 -23 -254z" />
<glyph unicode="1" horiz-adv-x="645" d="M543 449h71v1130h-71v-1130z" />
<glyph unicode="2" horiz-adv-x="1024" d="M346 449h2l68 67l30 31q170 176 265 284q84 98 157 205q45 74 76 144q25 63 25 131q0 70 -19 121q-20 47 -61 88q-43 41 -92 55q-53 23 -127 22q-2 0 -70 -6q-68 -12 -72 -12l-73 -25q-33 -12 -68 -26l14 -76q29 18 41 23q33 20 66 26q33 14 70 19q37 6 71 6q45 0 99 -15 q33 -12 73 -45q31 -31 49 -69q18 -41 19 -90q0 -51 -31 -129q-35 -78 -82 -152q-45 -63 -166 -209q-82 -96 -264 -293v-75zM623 449h354v67h-354v-67z" />
<glyph unicode="3" horiz-adv-x="989" d="M346 451q76 0 142.5 -2.5t138 18t125.5 63.5q90 72 102 184.5t-46 206t-159 121.5q100 25 156.5 113t41 192.5t-103.5 172.5q-49 37 -119.5 55t-137 18h-140.5v-59h74t77 -3t74.5 -8t69.5 -18.5t61 -34.5q78 -61 88.5 -151t-52 -163t-177.5 -83v-69q121 -14 182.5 -98.5 t48 -180.5t-86.5 -150q-31 -20 -66 -34.5t-69.5 -20.5t-73.5 -9t-75 -3h-75v-57z" />
<glyph unicode="4" horiz-adv-x="1087" d="M346 723h442v65h-327l516 685l-8 -685v-65v-176v-98h67v112v1106z" />
<glyph unicode="5" horiz-adv-x="1038" d="M346 477q29 -8 43 -14q12 -2 33.5 -7t26.5 -5q41 -4 61 -5q20 -4 63 -4q96 0 177 25q78 25 127 76q55 47 81 114q31 68 31 154q0 74 -26 141q-20 63 -72 105q-55 49 -113 67q-80 25 -155 25q-57 0 -119 -16q-74 -13 -144 -29v-55q117 23 129 24q57 10 111 10 q70 0 125 -18q63 -20 96 -53q43 -33 62 -88q20 -47 20 -115q0 -72 -20 -121q-31 -63 -72 -100q-37 -37 -100 -64q-59 -20 -133 -20q-47 0 -70 4q-27 2 -68 14q-12 2 -35.5 9.5t-27.5 9.5q-10 6 -31 14v-78zM369 1532h73h19h90h381v55h-563v-55z" />
<glyph unicode="6" horiz-adv-x="1103" d="M336 965q0 -115 24 -228q23 -96 70 -164q49 -68 117 -98q63 -33 158 -33q78 0 139 25q66 27 112 80q96 98 97 264q0 96 -23 152q-23 70 -67 108q-43 47 -107 72q-8 4 -65 20l-27 -63q25 -2 51 -17q49 -18 84 -59q76 -82 76 -219q0 -63 -19 -117q-18 -51 -59 -98 q-41 -41 -88 -62q-43 -20 -111 -20q-61 0 -104 20q-55 25 -86 66q-31 33 -51 82q-63 143 -47 389q10 113 30 178q27 104 82 168q49 68 129 107q80 35 172 34q35 0 54 -4q27 0 49 -8q25 -2 51 -14q4 -2 13 -4t14 -4l6 61q-8 4 -22.5 7t-18.5 5q-8 0 -28.5 3t-29.5 5 q-8 0 -25.5 3.5l-27.5 5.5h-49q-127 0 -201 -41q-88 -39 -147 -123q-66 -90 -94 -205q-31 -121 -31 -274z" />
<glyph unicode="7" horiz-adv-x="1103" d="M346 1518h596l-465 -1069h86l490 1130h-707v-61z" />
<glyph unicode="8" horiz-adv-x="1136" d="M346 758q0 -72 27 -123q20 -53 73 -100q49 -43 117 -66q63 -20 152 -20q84 0 147 20q76 27 117 66q55 43 80 96q25 63 24 121q0 43 -14 96q-18 41 -51 78q-8 8 -43 39l-49 -56q35 -37 51 -73q18 -41 18 -86q0 -53 -20 -95q-20 -43 -64 -77q-41 -33 -90 -50 q-35 -14 -110 -14q-70 0 -109 14q-55 20 -92 54q-39 33 -61 75q-20 43 -21 99q0 45 18 88q10 35 50 74l4 4l2 4l-45 45q-25 -18 -47 -41q-63 -66 -64 -172zM393 1360q0 -53 10 -86q18 -45 46 -76q4 -6 13 -16.5t13 -16.5l41 52q-25 27 -33 57q-14 35 -14 80q0 47 18 84 q16 37 56 67q35 31 82 43q43 16 104 17q53 0 92 -13q49 -20 76 -45q31 -20 51 -61q16 -37 17 -80q0 -33 -15 -80q-12 -33 -39 -61l45 -54q4 4 15.5 16.5t17.5 18.5q31 37 43 78q16 35 17 82q0 59 -22.5 104.5t-63.5 77.5q-47 39 -105 54q-55 18 -129 18q-78 0 -139 -18 q-66 -23 -107 -56q-49 -33 -69 -82q-20 -43 -21 -104z" />
<glyph unicode="9" horiz-adv-x="1114" d="M346 1237q0 -82 23 -145q16 -51 67 -109q53 -53 111 -72q2 0 11 -3t17 -5l25 62q-2 2 -6 4l-6 2q-51 18 -88 59t-58 92q-18 45 -18 115q0 68 22 121q14 51 58 100q80 90 201 90q66 0 104 -20q43 -18 86 -62q49 -63 63 -133q41 -145 31 -336q-6 -104 -31 -188 q-23 -86 -81 -168q-53 -68 -129 -104q-82 -35 -181 -35q-10 0 -26.5 1t-24.5 1q-8 2 -23.5 5t-23.5 5t-24.5 6t-24.5 8q-14 4 -25 13l-6 -66q8 -4 22.5 -8t16.5 -4q8 0 26.5 -3t29 -5t31 -4t22.5 -2h57q119 0 201 40q84 41 143 121q66 90 94 205q31 119 31 275 q0 139 -25 227q-20 90 -69 164q-49 68 -117 98q-63 33 -156 33q-158 0 -254 -105q-43 -47 -73 -116q-23 -74 -23 -154z" />
<glyph unicode=":" horiz-adv-x="710" d="M578 449h100v112h-100v-112zM578 1145h100v112h-100v-112z" />
<glyph unicode=";" horiz-adv-x="743" d="M516 293h68l125 282h-78zM604 1204h105v113h-105v-113z" />
<glyph unicode="&#x3c;" horiz-adv-x="1370" d="M309 1071l998 -407v53l-873 354l873 354v56z" />
<glyph unicode="=" horiz-adv-x="1282" d="M346 889h877v49h-877v-49zM346 1186h877v47h-877v-47z" />
<glyph unicode="&#x3e;" horiz-adv-x="1370" d="M309 664l998 407l-998 410v-56l875 -354l-875 -354v-53z" />
<glyph unicode="?" horiz-adv-x="960" d="M489 1544l19 -53q45 10 86 10q61 0 102 -14q104 -35 133 -115q18 -41 19 -92q0 -119 -137 -274q-68 -76 -95 -121q-31 -53 -38 -103q-2 -18 -3 -59v-12v-9h60v3v6q0 39 2 57q8 51 37 100q27 39 76 101q166 199 165 317q0 66 -20 113q-43 100 -158 139q-66 16 -135 16 q-16 0 -113 -10zM573 449h74v73h-74v-73z" />
<glyph unicode="@" horiz-adv-x="1781" d="M348 903q10 -80 27 -139q23 -63 55 -121q33 -55 80 -102q57 -57 111 -90q41 -31 102 -56q35 -18 113 -39q55 -14 127 -20q59 -8 135 -2q74 4 129 14q39 6 125 39q29 10 114 55q86 61 105 78l-19 23q-14 -10 -100 -66q-12 -4 -53 -22.5t-62 -26.5q-61 -23 -120 -35 q-70 -16 -125 -16q-143 -6 -261 24q-117 35 -206 103q-90 70 -144 172q-55 113 -61 221q-8 78 0 152q6 74 31 137q25 68 63 125q33 47 94 112q57 47 88 68q37 23 101 49q57 25 108 33q68 14 121 14q123 8 231 -20q111 -29 187 -88q88 -61 129 -142q49 -86 55 -188 q6 -59 0 -111q-4 -41 -26 -106q-12 -43 -48 -94q-23 -37 -61 -70q-4 -4 -39 -27q-10 -10 -37 -20q-16 -8 -39 -12q-18 -6 -39 -7q-27 0 -39 3l-30 12q-14 8 -21 24q-10 14 -10 33v14v17q0 6 2 14t2 12q0 2 2 11.5t4 13.5q47 309 -100 397q-47 25 -72 31q-20 6 -65 6 q-70 -6 -129 -37t-101 -94q-43 -55 -65 -133q-18 -68 -8 -158q2 -43 22 -104q33 -57 53 -74q31 -31 74 -43q39 -12 90 -10l15 45q-45 0 -72 8q-33 12 -60 39q-20 18 -34 59q-16 29 -21 76q-4 92 6 146q23 76 47 116q31 55 82 86q47 29 107 33q41 0 67 -8q51 -14 78 -54 t30 -97.5t-2 -114t-12.5 -121t-4.5 -98.5q8 -35 16 -47q10 -18 27 -29q23 -12 47 -19q49 -6 61 -6q10 2 30.5 5t30.5 6q45 14 58 20q20 6 53 27q43 33 49 39q51 47 72 81q31 43 49 97q18 55 25 112q8 53 2 121q-12 74 -23 107q-20 57 -47 100q-45 61 -72 86q-41 45 -92 76 q-31 23 -90 51q-51 23 -106 35q-39 10 -113 18q-55 8 -121 2q-102 -4 -178 -22q-47 -12 -154 -60q-78 -43 -131 -92q-55 -45 -110 -121q-12 -18 -29.5 -51t-26.5 -45q-25 -63 -34 -106q-14 -57 -19 -113q-4 -59 0 -121z" />
<glyph unicode="A" horiz-adv-x="1376" d="M313 442h64l411 996l21 49l20 -49l422 -996h60l-502 1182z" />
<glyph unicode="B" horiz-adv-x="1093" d="M348 449q29 -1 127 -5q59 -3 98 -2q26 0 43 1q43 3 113 23.5t121 61.5q70 53 94 134q13 45 12 89q0 34 -8 67q-18 75 -72.5 137.5t-127.5 80.5q102 27 158 114q43 67 42 145q0 23 -4 47q-16 104 -106 171q-37 29 -81 46.5t-102.5 23.5t-97.5 7h-30q-33 0 -81 -1 q-72 -2 -98 -2v-147h60v88q28 -1 55 -1q41 0 80 2h21q55 -1 116 -13q72 -16 119 -50q80 -59 90 -150q1 -13 1 -25q0 -76 -54 -138q-62 -72 -174 -82v-72q119 -14 180 -98q50 -69 50 -147q0 -16 -2 -33q-13 -96 -87 -148q-53 -39 -124 -55q-63 -14 -121 -14h-14q-32 1 -66 1 t-70 -1v80h-60v-135z" />
<glyph unicode="C" horiz-adv-x="1052" d="M350 1006q0 -246 164 -406q156 -154 414 -154q37 0 76 3v59q-43 -4 -82 -4q-226 0 -361 131q-154 150 -153 369q0 225 153 382q80 82 200 115q84 23 170 23q36 0 73 -4v59q-31 2 -60 2q-265 0 -430 -162q-164 -158 -164 -413z" />
<glyph unicode="D" d="M346 449q52 -3 104 -3q26 0 51 1q77 2 143.5 12t137 45t133.5 96q125 115 150 291q12 64 12 127.5t-12 126.5q-25 174 -143 287q-121 100 -246 127q-74 14 -330 14v-113h64v60q98 0 134 -1t107.5 -12.5t120.5 -39t98 -76.5q98 -98 125 -265q8 -56 8 -111.5t-8 -111.5 q-31 -166 -133 -262q-63 -63 -143 -95t-140.5 -37t-168.5 -5v57h-64v-112z" />
<glyph unicode="E" horiz-adv-x="913" d="M348 451h522v57h-460v1020h460v45h-522v-1122zM594 1012h82v47h-82v-47z" />
<glyph unicode="F" horiz-adv-x="884" d="M348 451h62v1054v23h24h410v45h-496v-1122zM594 1012h82v47h-82v-47z" />
<glyph unicode="G" horiz-adv-x="1300" d="M346 1018q0 -78 14 -141q12 -61 41 -125q25 -57 68 -109q35 -43 94 -88q25 -18 78 -47q35 -18 84 -33q31 -8 96 -20q47 -6 109 -6q80 0 112 6q39 4 80 18l-18 43q-37 -12 -60 -14q-51 -8 -106 -8q-121 0 -213 34q-92 39 -168 109q-68 68 -106 168q-35 100 -35 217 q0 111 35 205q33 96 104 166q70 70 160 104q94 35 203 35q70 0 155 -14v-5l17 52q-10 0 -17 2q-29 4 -78 8q-27 4 -80 4q-82 0 -139 -14q-57 -12 -129 -41q-76 -39 -112 -70q-47 -41 -80 -88q-31 -45 -47 -82q-23 -41 -35 -86q-8 -20 -23 -88q-4 -61 -4 -92zM1012 989h166 v-53h61v100h-227v-47z" />
<glyph unicode="H" horiz-adv-x="1048" d="M346 449h62v557h81v51h-81v510h-62v-1118zM856 1006h82v-557h61v1118h-61v-510h-82v-51z" />
<glyph unicode="I" horiz-adv-x="653" d="M557 451h66v1122h-66v-1122z" />
<glyph unicode="J" horiz-adv-x="759" d="M489 449q53 0 99 20q43 16 76 59q61 90 61 281v764h-61v-748q0 -61 -13 -143q-12 -68 -35 -100q-20 -33 -61 -60q-47 -18 -66 -20v-53z" />
<glyph unicode="K" horiz-adv-x="1142" d="M346 449h62v292h-62v-292zM346 1397h62v170h-62v-170zM424 1042l582 -593h84l-586 593l538 525h-73z" />
<glyph unicode="L" horiz-adv-x="911" d="M346 451h62v79v175v868h-62v-1122zM590 451h278v57h-278v-57z" />
<glyph unicode="M" horiz-adv-x="1337" d="M342 451h53v892l234 -411l41 39l-328 628v-1148zM948 971l41 -39l234 411v-892h51v1148z" />
<glyph unicode="N" horiz-adv-x="1144" d="M346 449h55v989l162 -228l37 35l-254 367v-1163zM844 805l248 -356v1165h-56v-991l-153 219z" />
<glyph unicode="O" horiz-adv-x="1382" d="M340 1016q0 -150 33 -242q35 -109 100 -186q47 -59 111 -94q59 -33 114 -48l19 54q-61 18 -96 43q-57 39 -99 88q-112 149 -112 383q0 113 26 213q33 104 86 172q65 79 135 108q78 37 168 37q98 0 172 -37q76 -33 136 -108q53 -68 86 -172q27 -86 27 -205 q0 -124 -27 -219q-31 -100 -86 -172q-43 -51 -101 -88q-35 -25 -96 -43l16 -54q53 12 119 48q55 31 113 94q63 78 100 186q33 111 33 242q0 127 -33 237q-37 109 -100 187q-63 72 -158 114q-84 39 -201 39q-115 0 -200 -39q-90 -43 -152 -114q-133 -158 -133 -424z" />
<glyph unicode="P" horiz-adv-x="983" d="M346 442h62v480v22h22h117q88 0 170 21q76 23 119 65q49 33 75 94q27 55 27 133q0 72 -23 134q-33 66 -71 94q-53 43 -113 59q-68 20 -164 21h-221v-133h62v59v22h22h148q57 0 118 -14q57 -20 95 -51q33 -37 57 -82q16 -53 16 -106q0 -68 -20 -111q-25 -53 -62 -86 q-43 -33 -92 -47q-59 -18 -143 -19h-117h-84v-555z" />
<glyph unicode="Q" horiz-adv-x="1388" d="M346 997q0 -137 31 -241q37 -109 100 -187q29 -31 53 -53q6 -4 19.5 -14t19.5 -15l33 56q-20 12 -29 26l-45 45q-112 146 -112 379q0 127 30 217q23 88 82 168q55 70 136 113q80 35 167 35q92 0 175 -35q74 -39 133 -113q57 -70 86 -168q28 -89 28 -205v-8 q0 -125 -28 -213q-29 -96 -86 -170q-53 -70 -140 -112q-47 -25 -125 -35l277 -258h80l-215 201l-25 24l31 15q80 41 131 88q59 53 92 118q43 76 60 154q18 82 18 188q0 135 -33 240q-39 111 -100 186q-72 78 -154 115t-205 37q-115 0 -196 -37q-92 -41 -158 -119 q-131 -152 -131 -422z" />
<glyph unicode="R" horiz-adv-x="1026" d="M346 446h62v111v285h-62v-396zM346 1432h62v61v25h22h139q72 0 127 -17q63 -14 95 -41q39 -27 57 -69q20 -43 20 -101q0 -59 -20 -106q-20 -43 -60 -84q-63 -35 -67 -37q-39 -18 -78 -21l266 -596h70l-256 572q98 37 151 100q63 80 64 174q0 72 -20 121q-20 47 -68 84 q-49 39 -107 51q-70 18 -161 19h-236v-135z" />
<glyph unicode="S" horiz-adv-x="983" d="M346 1323q0 -47 10 -78q8 -31 33 -65q6 -4 17.5 -17.5t17.5 -19.5q2 -2 33 -27q47 -35 162.5 -105.5t168.5 -113.5q33 -33 56 -72q25 -39 24 -88q0 -53 -18 -96q-23 -47 -55 -78q-39 -33 -90 -49q-35 -10 -79 -13q-19 -1 -37 -1q-25 0 -49 2q-42 4 -87 9t-80 11v-55 q29 -2 89 -10q60 -9 95 -11q12 -1 27 0q26 0 58 2q50 4 93 19q57 20 109 61q47 43 71 97q23 57 23 125q0 47 -12 79q-6 29 -31 66q-10 14 -37 37q-8 10 -33 26q-51 43 -162.5 109t-162.5 107q-41 39 -64 69q-27 47 -26 82q0 49 20 88q18 37 57 66q43 29 88 41q70 12 115 12 h15v49h-15q-82 0 -147 -16q-61 -18 -109 -52q-47 -35 -67 -81q-20 -55 -21 -109z" />
<glyph unicode="T" horiz-adv-x="1148" d="M348 1513h748v54h-748v-54zM690 446h62v859h-62v-859z" />
<glyph unicode="U" horiz-adv-x="1181" d="M346 899q0 -123 27 -205q39 -152 151 -217q29 -14 90 -31l17 54q-33 4 -70 28q-98 61 -133 197q-20 76 -20 184v664h-62v-674zM844 500l20 -51q43 12 86 34q109 61 154 219q22 92 22 212v10v649h-49v-643q0 -100 -20 -189q-44 -152 -142 -213q-39 -25 -71 -28z" />
<glyph unicode="V" horiz-adv-x="1411" d="M346 1567l496 -1180l504 1180h-62l-442 -1030l-428 1030h-68z" />
<glyph unicode="W" horiz-adv-x="1775" d="M346 1573l318 -1122h61l-322 1122h-57zM829 915h56l141 402l133 -402h60h4l-199 619zM1311 451h59l322 1122h-64z" />
<glyph unicode="X" horiz-adv-x="1226" d="M346 455h78l332 376l340 -376h73l-413 469zM346 1567l410 -469l413 469h-73l-340 -377l-332 377h-78z" />
<glyph unicode="Y" horiz-adv-x="1226" d="M346 1573l406 -610l417 610h-65l-352 -504l-332 504h-74zM729 451h62v352h-62v-352z" />
<glyph unicode="Z" horiz-adv-x="1181" d="M346 451h623v57h-480h-40l24 35l148 233l284 451l221 346h-495v-47h354h41l-22 -35l-152 -240l-250 -399l-67 -102l-5 -2z" />
<glyph unicode="[" horiz-adv-x="833" d="M582 362h213v41h-140h-18v19v1337v17h18h140v43h-213v-1457z" />
<glyph unicode="]" horiz-adv-x="833" d="M582 362h213v1457h-213v-43h135h18v-17v-1337v-19h-18h-135v-41z" />
<glyph unicode="^" horiz-adv-x="1335" d="M346 1245h70l393 389l391 -389h72l-463 481z" />
<glyph unicode="_" horiz-adv-x="1230" d="M346 440h828v54h-828v-54z" />
<glyph unicode="`" horiz-adv-x="833" d="M557 1720l168 -266h70l-160 266h-78z" />
<glyph unicode="a" horiz-adv-x="989" d="M346 668q0 -55 16 -90q14 -37 48 -70q35 -29 79 -45q35 -14 105 -14h27v45h-17q-47 0 -74 10q-41 18 -61 39q-31 33 -41 59q-12 31 -12 74q0 49 24 88q25 45 64 67q45 29 104 43q49 10 135 11h115h21v-21v-76q0 -315 -2 -331h65v518q0 150 -65 225q-39 39 -80 53 q-55 22 -120 23q-83 0 -183 -37q-33 -12 -48 -20l17 -41q109 45 194 45q55 0 99 -19q45 -20 67 -51q31 -35 45 -73q13 -35 12 -67l-1 -81h-21h-106q-100 0 -177 -21q-78 -18 -126 -53q-53 -31 -76 -80q-27 -45 -27 -110z" />
<glyph unicode="b" horiz-adv-x="1044" d="M346 457h64v1216h-64v-1216zM584 463q35 -14 100 -14q74 0 125 26q59 35 96 88q43 55 70 133q20 76 20 174q0 102 -24 168q-23 72 -66 127q-41 51 -100 80q-51 29 -131 29q-47 0 -78 -10q-8 0 -12 -4v-43q31 10 80 10q63 0 110 -27q43 -23 78 -76q39 -51 53 -114 q18 -68 19 -152q0 -162 -72 -258q-29 -49 -82 -78q-45 -26 -104 -26h-4q-29 0 -78 12v-45z" />
<glyph unicode="c" horiz-adv-x="862" d="M346 858q0 -98 27 -170q25 -72 78 -131q59 -55 122 -82q66 -26 152 -26h6h57q2 0 13.5 2t19.5 4v59q-18 -6 -33 -6q-14 -4 -51 -4q-78 0 -129 24q-51 18 -104 72q-41 43 -64 115q-20 51 -20 141t20 141q27 66 70 109q51 53 104 74q57 26 124 26h5q10 0 29 -1t27 -1 q6 0 13 -2t9 -2v57h-22q-14 2 -49 3q-94 0 -162 -27q-74 -29 -131 -84q-51 -51 -82 -125q-29 -70 -29 -166z" />
<glyph unicode="d" horiz-adv-x="1044" d="M346 870q0 -90 23 -174q23 -80 65 -133q39 -55 101 -88q49 -26 117 -26h5q68 0 101 14v45q-45 -12 -76 -12q-63 0 -109 26q-51 29 -86 78q-71 95 -71 254q0 88 18 156q20 70 53 114q33 51 82 76q47 27 109 27q51 0 80 -10v43q-2 4 -10 4q-31 10 -78 10q-78 0 -133 -29 q-61 -31 -103 -80q-43 -55 -65 -127q-23 -78 -23 -168zM930 457h65v1216h-65v-1216z" />
<glyph unicode="e" horiz-adv-x="1046" d="M346 874q0 -207 100 -317q99 -108 274 -108h3q111 0 209 38l-21 50q-78 -39 -175 -39q-21 0 -42 2q-123 10 -198 90q-84 92 -88 258q0 10 1 38.5t1 43.5q10 80 30 121q12 45 56 100q45 45 86 66q57 20 100 20q61 0 102 -20q37 -20 78 -64q23 -27 53 -100q12 -39 21 -123 l2 -25h-141v-37h200v41q0 94 -20 156q-16 63 -62 119q-86 100 -219 100q-74 0 -141 -27q-66 -29 -113 -86q-43 -51 -73 -129q-23 -80 -23 -168z" />
<glyph unicode="f" horiz-adv-x="854" d="M346 1198h117v45h-117v-45zM537 449h65v862v102q0 57 8 92q8 39 27 66q18 25 51 41q29 14 68 14q12 0 18 -2q14 0 21 -4q12 0 20 -6v57h-6q-2 0 -9 2t-12 2h-18h-18q-63 0 -95 -14q-43 -20 -67 -47q-23 -29 -39 -80q-14 -61 -14 -117v-106v-862zM676 1198h133v45h-133 v-45z" />
<glyph unicode="g" horiz-adv-x="1071" d="M346 858q0 -92 23 -170q20 -74 65 -131q39 -51 103 -82q53 -26 126 -26h5q47 0 80 8q39 14 49 20v45q-49 -26 -109 -26h-4q-66 0 -111 26q-59 33 -86 78q-67 95 -67 257q0 93 16 153q16 68 51 112q31 43 86 74q49 27 105 27q61 0 119 -27v43q-29 12 -41 14q-33 12 -86 13 q-78 0 -133 -27q-55 -25 -103 -82q-41 -47 -65 -127q-23 -80 -23 -172zM430 119q31 -12 98 -27q10 -2 33 -5t35 -5q25 -2 72 -2q90 0 155 26q68 29 109 80q45 51 67 136q23 76 23 198v729h-59v-671q1 -26 1 -55t-1 -60q-2 -62 -19 -115q-18 -68 -59 -119q-39 -45 -94 -73 q-61 -23 -129 -23q-35 0 -68 6q-29 2 -66 11l-67 24z" />
<glyph unicode="h" horiz-adv-x="1011" d="M346 449h64v342v73v178v76v162v381h-64v-1212zM578 1190q49 16 100 16q55 0 100 -16q41 -18 70 -57q25 -41 37 -91q14 -51 14 -127v-466h66v493q0 78 -17 137q-18 66 -51 101q-29 39 -80 63q-53 20 -108 21q-45 0 -84 -13q-14 -2 -47 -14v-47z" />
<glyph unicode="i" horiz-adv-x="573" d="M463 1540h84v98h-84v-98zM473 449h64v794h-64v-794z" />
<glyph unicode="j" horiz-adv-x="624" d="M346 145h2q4 0 11.5 -2t9.5 -2q14 0 20 -2h21q49 0 86 17q33 14 55 45q25 37 33 88q12 47 12 141v875h-66v-869q0 -72 -6 -114q-6 -55 -22 -76q-12 -27 -45 -43q-29 -14 -62 -15h-14q-4 0 -8 2t-6 2.5t-8.5 1.5t-8.5 1z" />
<glyph unicode="k" horiz-adv-x="983" d="M346 449h64v167h-64v-167zM346 1133h64v528h-64v-528zM424 905l22 -22l406 -434h86l-424 448l-14 14l14 15l365 317h-70l-363 -319z" />
<glyph unicode="l" horiz-adv-x="604" d="M510 449h65v1212h-65v-1212z" />
<glyph unicode="m" horiz-adv-x="1517" d="M346 449h64q0 133 2 398t2 396h-68v-794zM578 1237l22 -41q32 12 66 12q45 0 92 -22q70 -37 92 -148q12 -51 12 -123v-466h64v165v250q-1 181 -15 226q-39 125 -143 159q-31 10 -78 11q-45 0 -76 -9l-18 -6t-18 -8zM1096 1237l14 -45q36 14 73 14q44 0 89 -20 q74 -37 98 -144q10 -49 10 -127v-466h66v493q0 74 -14 137q-31 121 -121 160q-43 20 -105 21q-47 0 -80 -11q-4 -2 -14 -5t-16 -7z" />
<glyph unicode="n" horiz-adv-x="976" d="M346 449h64q0 133 2 398t2 396h-68v-794zM578 1237l12 -45q38 14 77 14l91 -20q41 -23 59 -60q25 -37 33 -88q12 -51 12 -123v-466h64v165v250q-1 181 -15 226q-10 39 -34 75q-27 37 -52 54q-31 25 -57 30q-31 10 -78 11q-45 0 -76 -9l-18 -6t-18 -8z" />
<glyph unicode="o" d="M346 844q0 -100 27 -174q20 -70 73 -133q16 -20 58 -54q35 -25 69 -34h2l13 32q4 18 6 21v2q-16 10 -45 26q-31 27 -49 52q-45 59 -60 116q-20 55 -20 150q0 88 16 147q18 55 64 111q37 53 94 80q62 25 118 25l2 -1q58 0 122 -24q53 -25 94 -76q43 -59 61 -115 q18 -68 19 -147q0 -84 -19 -152q-20 -63 -61 -114q-10 -14 -47 -52q-35 -20 -41 -22v-6q0 -2 2 -6q2 -10 4 -15l8 -32q29 10 59 28q37 31 64 60q47 49 78 133q22 77 22 166v8q0 96 -22 174q-33 84 -78 131q-45 53 -115 82q-59 29 -149 29q-88 0 -152 -29q-72 -31 -117 -82 q-53 -63 -73 -131q-27 -72 -27 -174z" />
<glyph unicode="p" horiz-adv-x="1077" d="M346 106h64l4 1147h-68v-1147zM578 473q37 -14 47 -16q33 -8 77 -8q78 0 129 26q63 27 107 86q43 49 66 133q22 57 22 165v9q0 109 -20 170q-18 61 -64 127q-47 53 -100.5 80t-126.5 27q-55 0 -84 -12q-25 -2 -53 -21v-41q63 25 116.5 25t108.5 -25q51 -29 82 -74 q35 -47 51 -112q16 -57 16 -150q0 -90 -16 -147q-18 -68 -53 -119q-35 -49 -84 -76q-43 -26 -104 -26h-5q-61 0 -112 22v-43z" />
<glyph unicode="q" horiz-adv-x="1077" d="M346 864q0 -94 22.5 -174t67.5 -135q55 -61 105 -82q53 -27 133 -27q43 0 78 9q18 2 47 14v45q-59 -25 -114.5 -25t-109.5 27q-55 31 -86 78q-33 45 -53 117q-16 59 -16 147q0 92 16 152q23 74 51 112q31 43 86 74q49 23 109 23q63 0 115 -23l2 -4v45q-31 16 -51 20 q-41 12 -84 13q-72 0 -129 -27q-61 -29 -101 -80q-49 -61 -65 -127q-23 -80 -23 -172zM963 100h63v1151h-63v-1151z" />
<glyph unicode="r" horiz-adv-x="806" d="M420 449h63v794h-63v-794zM629 1169q45 23 102 23h17q2 -2 14 -2q6 0 8 -4v67h-12h-10h-11q-43 0 -69 -8q-8 -4 -39 -18v-58z" />
<glyph unicode="s" horiz-adv-x="864" d="M346 1077q0 -33 8 -55q4 -12 29 -47q43 -49 172 -110.5t162 -100.5q25 -29 31 -47q8 -37 8 -55q0 -37 -19 -68q-12 -29 -47 -53q-29 -23 -67 -33q-27 -8 -55.5 -11t-54.5 -1t-53.5 6t-53 9t-52.5 11v-49q103 -26 187 -26q66 0 121 16q53 18 90 47q35 27 57 68 q14 47 14 92q0 41 -12 65q-2 25 -29 56q-18 20 -57 47q-35 25 -131 72.5t-133 80.5q-47 41 -47 86q0 27 14 60q27 35 45 47q53 35 137 35h37v45q-8 0 -24.5 1t-22.5 1q-53 0 -106 -15q-37 -10 -80 -41q-33 -25 -52 -59q-16 -27 -16 -74z" />
<glyph unicode="t" horiz-adv-x="854" d="M346 1200h117v45h-117v-45zM537 709q0 -61 14 -119q16 -51 39 -80q25 -27 67 -47q31 -14 95 -14h18h18q2 0 7 2q10 2 14 4h6v53q-2 0 -9 -2t-11 -2q-2 0 -10.5 -1t-10.5 -3h-18q-45 0 -68 14q-35 14 -51 41q-18 27 -27 66q-8 35 -8 90v104v860h-65v-860v-106zM676 1200 h133v45h-133v-45z" />
<glyph unicode="u" horiz-adv-x="1009" d="M346 774q0 -90 16 -145q14 -57 48 -101q67 -79 189 -79h3q51 0 86 8q27 6 47 18v47q-47 -20 -104 -20q-55 0 -96 18q-47 23 -72 58q-31 47 -41 92q-12 51 -12 127v456h-64v-479zM897 457h66v796h-66v-796z" />
<glyph unicode="v" horiz-adv-x="1034" d="M346 1227l318 -807l321 807h-61l-260 -664l-250 664h-68z" />
<glyph unicode="w" horiz-adv-x="1411" d="M346 1253l229 -804h68l-229 804h-68zM684 778h53l99 307l96 -307h57v4l-153 492zM1051 449h65l230 804h-68z" />
<glyph unicode="x" horiz-adv-x="1024" d="M346 449h68l248 272l249 -272h66l-315 356zM346 1257l316 -358l315 358h-66l-249 -274l-248 274h-68z" />
<glyph unicode="y" horiz-adv-x="1040" d="M346 1210l197 -553l41 48l-168 505h-70zM377 53h6q12 0 20 -4h21q2 0 8 -1t10 -1q37 0 72 14q41 20 59 37q12 12 50 70q39 84 47 106l321 936h-61l-289 -850v-6q-33 -90 -45 -114q-18 -49 -45 -78q-23 -31 -51 -43q-37 -16 -66 -17q-12 0 -24 4q-4 0 -12.5 1.5t-14.5 1.5 z" />
<glyph unicode="z" horiz-adv-x="1017" d="M346 449h545v47h-449l125 178l236 336l168 233h-369v-43h246h29l-13 -16l-116 -172l-201 -281l-37 -49z" />
<glyph unicode="{" horiz-adv-x="1009" d="M434 1051h107v65h-107v-65zM684 616q0 -92 12 -153q10 -53 41 -86q29 -31 72 -43q61 -14 129 -15h25v50h-21q-57 0 -98 12q-35 8 -60 33q-20 29 -28 69q-12 61 -13 113v98v676v2v199q0 53 13 115q8 43 32 69q14 23 60 37q31 8 94 8h21v49h-25q-80 0 -129 -14 q-43 -12 -72 -43q-31 -33 -41 -86q-12 -61 -12 -154v-98v-84v-676v-71v-7z" />
<glyph unicode="|" horiz-adv-x="1130" d="M1006 1116h71v690h-67h-4v-690z" />
<glyph unicode="}" horiz-adv-x="1060" d="M487 319h23q70 0 127 15q51 12 78 43q25 29 37 86q16 66 16 153v7v71v676v84v98q0 88 -16 154q-12 59 -37 86q-29 33 -78 43q-45 14 -127 14h-23v-49h17q63 0 98 -8q43 -16 62 -37q25 -27 32 -69q8 -41 9 -115v-199v-2v-676v-98q0 -72 -9 -113q-8 -45 -32.5 -69.5 t-61.5 -32.5q-37 -12 -94 -12h-21v-50zM909 1051h103v65h-103v-65z" />
<glyph unicode="~" horiz-adv-x="1517" d="M346 1083q186 127 311 127q68 0 209.5 -49t171.5 -55q191 -44 408 106v86q-113 -76 -205 -106.5t-203 -5.5q-20 6 -163.5 55t-217.5 49q-137 0 -311 -119v-88z" />
<glyph unicode="&#xa1;" horiz-adv-x="665" d="M541 373h94l-14 772h-66zM549 1444h80v94h-80v-94z" />
<glyph unicode="&#xa2;" horiz-adv-x="911" d="M346 858q0 -94 27 -168q25 -74 78 -133q59 -55 122 -82q68 -27 158 -26h57q2 0 13.5 2t19.5 4v59q-18 -6 -33 -6q-14 -4 -51 -4q-61 0 -129 24q-61 27 -104 74q-41 41 -64 113q-20 51 -20 143q0 88 20 139q20 57 70 113q41 43 104 74q63 23 129 22q39 0 56 -2q6 0 13 -2 t9 -2v57q-12 0 -22 3h-49q-94 0 -162 -27q-74 -29 -131 -84q-51 -51 -82 -125q-29 -70 -29 -166zM457 348l63 -20l29 100l-62 21zM776 1364l60 -21l32 101l-63 20z" />
<glyph unicode="&#xa3;" horiz-adv-x="1075" d="M346 449h651v61h-651v-61zM516 629h74v196v314q0 106 14 180t47 125q72 100 207 100q8 0 23.5 -2t21.5 -2t19.5 -3t21.5 -5q6 -4 21.5 -8t23.5 -6q2 -2 10.5 -6.5t12.5 -6.5l12 66q-25 8 -35 10q-8 2 -22.5 5t-22.5 5q-10 2 -26.5 5t-18.5 3h-43q-82 0 -147 -24 q-61 -25 -107 -76q-41 -53 -61 -129q-25 -80 -25 -186v-359v-196zM678 1038h186v45h-186v-45z" />
<glyph unicode="&#xa5;" horiz-adv-x="1226" d="M346 1567l365 -549h-271v-62h289h23h39h286v62h-282l374 549h-65l-352 -504l-332 504h-74zM440 737h289v-288h62v288h286v60h-286h-62h-289v-60z" />
<glyph unicode="&#xa7;" horiz-adv-x="1122" d="M451 1116q0 -90 84 -160q59 -55 213 -141l2 -4q10 -8 32 -20q150 -102 150 -195q0 -31 -14 -68q-12 -33 -44 -53q-29 -23 -65 -33q-37 -12 -86 -12q-10 0 -28.5 2t-26.5 2q-29 2 -60 12v-51q10 -2 29.5 -5t30.5 -3q16 -4 53 -4q66 0 115 16q49 12 88 41q35 31 53 68 q18 41 18 92q0 8 -3 26.5t-3 20.5q-2 8 -7 22.5t-7 20.5q-4 8 -13.5 22.5t-11.5 18.5q-53 68 -186 146.5t-176 117.5q-80 72 -80 150q0 33 8 55q10 33 27 51l8 9l-29 26q-27 -27 -35 -41q-16 -25 -26 -59q-10 -37 -10 -70zM522 1532q0 -25 6 -45q2 -16 15 -41q25 -45 92 -97 t108 -79l109 -70q49 -27 70 -47q29 -25 43 -47q14 -16 26 -49q8 -25 8 -58q0 -23 -4 -51l-24 -49v-2q-2 -4 -2 -6l30 -29q23 23 31 35q20 29 29 59q10 35 10 66q0 27 -12 57q-8 25 -31 64q-35 41 -55 55q-33 31 -80 55q-6 4 -78 45t-121 75t-69 61q-16 18 -27 47 q-8 23 -8 51q0 35 14 70q12 33 39 53q14 18 57 33q41 10 80 10q31 0 47 -4q2 0 52 -8l12 43q-31 10 -51 10q-12 2 -33 2q-10 4 -35 4q-57 0 -102 -16q-51 -16 -80 -43q-39 -39 -47 -68q-18 -37 -19 -86z" />
<glyph unicode="&#xa8;" horiz-adv-x="1032" d="M657 1614h66v106h-66v-106zM915 1614h68v106h-68v-106z" />
<glyph unicode="&#xa9;" horiz-adv-x="1476" d="M346 979q0 -221 155.5 -375.5t375 -154.5t375 154.5t155.5 375.5q0 219 -155.5 375.5t-375 156.5t-375 -156.5t-155.5 -375.5zM403 979q0 195 139.5 332t334 137t334 -137t139.5 -332t-139.5 -333t-334 -138t-334 138t-139.5 333zM535 983q0 -74 22 -145q25 -63 68 -109 q45 -47 104 -72q61 -23 129 -22q31 0 47 2q20 0 31 4v49l-31 -6q-8 0 -20.5 -1t-20.5 -1q-53 0 -108 20q-49 23 -86 62q-43 49 -56 94q-18 59 -18 121q0 70 20 119q20 57 58 94q37 45 88 61q53 25 108 25q6 0 22.5 -2t25.5 -2q6 -2 18 -2v47h-18q-14 4 -44 4q-68 0 -137 -25 q-57 -20 -108 -71q-45 -47 -72 -109q-23 -63 -22 -135z" />
<glyph unicode="&#xac;" horiz-adv-x="1523" d="M631 1290h770h12v-10v-201h39v254h-821v-43z" />
<glyph unicode="&#xad;" horiz-adv-x="905" d="M483 999h379v60h-379v-60z" />
<glyph unicode="&#xae;" horiz-adv-x="1390" d="M346 938q0 -104 37 -186q39 -90 106 -158q72 -70 160 -111q92 -35 182 -34q92 0 191 34q96 45 162 113q66 63 106 154q35 92 35 188q0 94 -35 186q-41 94 -106 160q-70 70 -160 107q-87 36 -193 36q-102 0 -184 -34q-96 -43 -153 -107q-74 -74 -111 -162 q-37 -82 -37 -186zM393 938q0 90 35 166q31 76 96 147q63 59 144 95q86 33 163 32q86 0 173 -32q80 -33 145 -97q66 -70 94 -143q35 -86 35 -168t-33 -168q-33 -78 -96 -141q-63 -61 -145 -99q-86 -35 -173 -34q-78 0 -163 34q-78 37 -144 99q-66 63 -96 141q-35 78 -35 168 zM688 625h10h33h12v12v59v152v8h-12h-33h-10v-8v-211v-12zM688 1145h10h33h12v8v37h72q23 0 35 -4q20 0 29 -2q4 -2 13 -5t13 -5q2 -2 8.5 -6.5t10.5 -4.5q4 -2 9 -7t9 -7q0 -2 4 -8t6 -11q6 -12 6 -24q4 -6 5 -23q0 -20 -5 -30q-2 -12 -8 -21q-2 -10 -12 -20 q-4 -10 -16 -17q-6 -6 -13 -10q-2 0 -8 -4t-10 -4q-2 0 -10.5 -3t-10.5 -5q-2 0 -8 -2t-10 -2l-16 -2l8 -15l141 -317l4 -6h6h37h19l-9 16l-131 291l37 18q29 25 37 35q16 18 27 47q12 33 12 51q0 6 -1 17.5t-1 17.5q-10 29 -12 33t-7.5 13.5t-7.5 13.5q-4 4 -13 12t-11 10 h-2l-25 19q-6 2 -17.5 6t-17.5 6q-37 6 -41 6q-16 2 -47 2h-123h-10v-12v-74v-8z" />
<glyph unicode="&#xb0;" horiz-adv-x="1064" d="M594 1505q0 -90 60.5 -151.5t150.5 -61.5q88 0 149.5 61.5t61.5 151.5t-61.5 152.5t-149.5 62.5t-149.5 -62.5t-61.5 -152.5zM629 1505q0 76 50 126t126 50q72 0 123 -52t51 -124q0 -76 -50 -127t-124 -51t-125 52.5t-51 125.5z" />
<glyph unicode="&#xb2;" horiz-adv-x="1003" d="M610 1126h11h2h2l4 4l49 50l10 10q150 150 209 235q10 12 39 68q14 47 14 78q0 23 -2 31q0 2 -6 32q-16 29 -37 47q-18 20 -53 31q-49 16 -96 8q-39 -2 -119 -32l-6 -2v-11l10 -35l2 -14l12 6q6 6 9 6l12 7q45 23 100 22q37 0 60 -12q29 -14 43 -37q10 -27 10 -47 q0 -35 -19 -72q-8 -16 -39 -67q-37 -55 -155 -175l-62 -61l-4 -4v-2v-53v-11zM752 1126h12h180h12v11v34v9h-12h-180h-12v-9v-34v-11z" />
<glyph unicode="&#xb3;" horiz-adv-x="976" d="M657 1122l11 -4h2h71.5t68.5 10.5t64 34.5q39 37 52 80q10 41 0 76q-6 35 -31 72q-33 33 -53 41q33 18 55 47q16 25 27 61q4 37 -2 68q-10 49 -54 80q-41 31 -94 34q-45 8 -106 4h-11v-8v-30v-13l11 4h8q121 0 160 -32q41 -31 41 -74q2 -14 -3 -33q-4 -12 -16 -33 q-25 -41 -84 -47h-10v-8v-39v-8h10q55 -10 84 -51q14 -14 19 -37q2 -16 2 -43q-6 -49 -41 -74q-39 -31 -162 -31h-8h-11v-10v-29v-8z" />
<glyph unicode="&#xb4;" horiz-adv-x="942" d="M670 1454h65l164 266h-76z" />
<glyph unicode="&#xb9;" horiz-adv-x="821" d="M711 1126h71v594h-71v-2v-592z" />
<glyph unicode="&#xba;" horiz-adv-x="1095" d="M483 1423q0 -49 21 -123q18 -51 57 -94q43 -43 88 -57q47 -23 114.5 -23t115.5 23q47 14 90 57q37 45 55 94q20 53 20 123q0 74 -20 123q-18 49 -55 94q-41 40 -90 60q-57 20 -114.5 20t-115.5 -20q-45 -20 -88 -60q-39 -43 -57 -94q-20 -70 -21 -123zM547 1425.5 q0 59.5 14 102.5q8 33 43 80q66 72 160 71q47 0 88 -18.5t72 -48.5q31 -37 45 -84q14 -49 14 -102.5t-14 -102.5q-14 -47 -45 -84q-31 -35 -72 -53q-35 -16 -88 -17q-43 0 -88 21q-43 16 -68 53q-27 31 -47 80q-14 43 -14 102.5z" />
<glyph unicode="&#xbf;" horiz-adv-x="890" d="M424 717q0 -70 22 -115q43 -102 158 -135q59 -18 137 -18q59 0 109 12l-19 49q-31 -8 -83 -8q-47 0 -105 14q-96 29 -133 115q-16 43 -16 90q0 104 137 276q76 90 94 121q29 51 37 101q6 55 6 59v14v8h-59v-2v-8q0 -4 -7 -53q-10 -68 -32 -100q-29 -51 -76 -99 q-170 -207 -170 -321zM696 1479h74v75h-74v-75z" />
<glyph unicode="&#xc0;" horiz-adv-x="1376" d="M313 442h60l422 996l20 49l21 -49l407 -996h68l-500 1182zM616 1982l168 -262h66l-156 262h-78z" />
<glyph unicode="&#xc1;" horiz-adv-x="1376" d="M313 442h64l411 996l21 49l20 -49l422 -996h60l-502 1182zM774 1720h62l168 262h-74z" />
<glyph unicode="&#xc2;" horiz-adv-x="1376" d="M313 442h60l422 996l20 49l21 -49l407 -996h68l-500 1182zM573 1675h27h35h6l2 4l186 187l189 -187l4 -4h4h33h31l-21 19l-231 239l-9 9l-8 -9l-227 -239z" />
<glyph unicode="&#xc3;" horiz-adv-x="1376" d="M313 442h60l422 996l20 49l21 -49l407 -996h68l-500 1182zM567 1720q82 78 148 78q37 0 110.5 -36t112.5 -36q59 0 147 80v39q-86 -78 -147 -78q-37 0 -110.5 36t-112.5 36q-70 0 -148 -74v-45z" />
<glyph unicode="&#xc6;" horiz-adv-x="1613" d="M346 670q0 -57 16 -92q14 -37 48 -70q33 -25 79 -45q53 -14 105 -14h27v45h-17q-23 0 -74 10q-27 12 -61 39q-29 29 -41 59q-12 33 -12 74q0 53 24 92q18 37 64 68q43 22 104 38q49 10 135 11h115h21v-17v-80q0 -315 -2 -327h65v153q6 -12 41 -57q100 -109 277 -108 q115 0 213 38l-21 50q-94 -47 -219 -37t-201 90q-80 90 -88 258q0 10 2 38.5t2 43.5q6 70 29 121q20 57 55 100q45 45 86 66q61 20 101 20q61 0 104 -20q49 -27 78 -64q27 -29 53 -100q16 -43 21 -123l4 -25h-146v-37h205v41q0 94 -20 156q-18 72 -64 119q-82 100 -221 100 q-74 0 -141 -27q-68 -33 -113 -86q-25 -27 -49 -75q-25 74 -53 104q-35 35 -80 57q-127 45 -303 -14q-20 -12 -48 -20l17 -45q68 33 146.5 41t146.5 -15q35 -10 67 -47q31 -35 44.5 -72.5t12.5 -72.5t-1 -80h-21h-106q-90 0 -177 -17q-72 -16 -126 -53q-57 -39 -76 -84 q-27 -45 -27 -108z" />
<glyph unicode="&#xc7;" horiz-adv-x="1052" d="M350 1006q0 -246 164 -406q178 -176 490 -151v59q-285 -27 -443 127q-154 150 -153 369q0 225 153 382q80 82 200 115t243 19v59q-307 20 -490 -160q-164 -158 -164 -413zM655 227h74l109 176h-74z" />
<glyph unicode="&#xc8;" horiz-adv-x="913" d="M348 451h522v57h-460v1020h460v45h-522v-1122zM422 1956l168 -262h65l-155 262h-78zM594 1012h82v47h-82v-47z" />
<glyph unicode="&#xc9;" horiz-adv-x="913" d="M348 451h522v57h-460v1020h460v45h-522v-1122zM578 1694h65l166 262h-74zM594 1012h82v47h-82v-47z" />
<glyph unicode="&#xca;" horiz-adv-x="913" d="M348 451h522v57h-460v1020h460v45h-522v-1122zM350 1675h27h37h6l2 4l188 187l189 -187l6 -4h33h30l-20 19l-227 239l-11 9l-8 -9l-233 -239zM594 1012h82v47h-82v-47z" />
<glyph unicode="&#xcc;" horiz-adv-x="583" d="M326 1894l168 -262h63l-156 262h-75zM496 436h61v1123h-61v-1123z" />
<glyph unicode="&#xcd;" horiz-adv-x="763" d="M494 436h61v1123h-61v-1123zM494 1638h67l168 265h-78z" />
<glyph unicode="&#xd0;" horiz-adv-x="1124" d="M401 369q6 0 9 -2q14 0 20 -5q6 0 16.5 -1t16.5 -1q41 0 84 17q39 29 63 57q31 37 52 94q20 53 40 146l140 700q10 49 22 86q18 45 31 60q39 51 94 51h17q8 0 20 -6q4 0 23 -6q2 -3 8 -7l14 50q-4 2 -10 4l-4 2q-4 2 -13.5 4t-11.5 2q-4 0 -12 2t-10 2q-6 0 -12.5 1 t-8.5 1q-43 0 -74 -18q-35 -14 -59 -48q-29 -31 -47 -75q-23 -59 -33 -115l-145 -715q-12 -66 -27 -106q-12 -41 -31 -68q-20 -31 -43 -41q-16 -12 -53 -12h-10h-16q-2 0 -8.5 2t-12.5 4q-8 0 -10 2zM582 1169h82l10 50h-92v-50zM874 1169h95v50h-86z" />
<glyph unicode="&#xd2;" horiz-adv-x="1390" d="M348 1004q0 -143 33 -240q35 -111 100 -186q53 -61 113 -95q45 -27 115 -47l16 53q-66 23 -96 46q-47 31 -99 88q-111 147 -110 383q0 125 26 213q31 98 84 172q60 73 138 108q70 35 168 35q100 0 170 -35q78 -35 137 -108q53 -74 84 -172q27 -88 26 -213 q0 -119 -26 -211q-31 -98 -84 -172q-51 -57 -101 -88q-33 -23 -98 -46l19 -53q70 20 116 47q51 29 113 95q66 76 100 186q33 115 33 240q0 127 -33 241q-35 109 -100 187q-66 74 -156 114q-86 39 -200 39q-111 0 -201 -39q-88 -39 -154 -114q-133 -162 -133 -428zM696 1915 l166 -266h68l-156 266h-78z" />
<glyph unicode="&#xd3;" horiz-adv-x="1390" d="M348 1004q0 -143 33 -240q35 -111 100 -186q53 -61 113 -95q45 -27 115 -47l16 53q-66 23 -96 46q-47 31 -99 88q-111 147 -110 383q0 125 26 213q31 98 84 172q60 73 138 108q70 35 168 35q100 0 170 -35q78 -35 137 -108q53 -74 84 -172q27 -88 26 -213 q0 -119 -26 -211q-31 -98 -84 -172q-51 -57 -101 -88q-33 -23 -98 -46l19 -53q70 20 116 47q51 29 113 95q66 76 100 186q33 115 33 240q0 127 -33 241q-35 109 -100 187q-66 74 -156 114q-86 39 -200 39q-111 0 -201 -39q-88 -39 -154 -114q-133 -162 -133 -428zM721 1655 h67l164 264h-75z" />
<glyph unicode="&#xd4;" horiz-adv-x="1390" d="M348 1004q0 -143 33 -240q35 -111 100 -186q53 -61 113 -95q45 -27 115 -47l16 53q-66 23 -96 46q-47 31 -99 88q-111 147 -110 383q0 125 26 213q31 98 84 172q60 73 138 108q70 35 168 35q100 0 170 -35q78 -35 137 -108q53 -74 84 -172q27 -88 26 -213 q0 -119 -26 -211q-31 -98 -84 -172q-51 -57 -101 -88q-33 -23 -98 -46l19 -53q70 20 116 47q51 29 113 95q66 76 100 186q33 115 33 240q0 127 -33 241q-35 109 -100 187q-66 74 -156 114q-86 39 -200 39q-111 0 -201 -39q-88 -39 -154 -114q-133 -162 -133 -428zM578 1647 h26h37h6l2 2l187 186l188 -186l2 -2h4h35h31l-23 20l-229 240l-8 8l-11 -8l-229 -240z" />
<glyph unicode="&#xd5;" horiz-adv-x="1390" d="M348 1004q0 -143 33 -240q35 -111 100 -186q53 -61 113 -95q45 -27 115 -47l16 53q-66 23 -96 46q-47 31 -99 88q-111 147 -110 383q0 125 26 213q31 98 84 172q60 73 138 108q70 35 168 35q100 0 170 -35q78 -35 137 -108q53 -74 84 -172q27 -88 26 -213 q0 -119 -26 -211q-31 -98 -84 -172q-51 -57 -101 -88q-33 -23 -98 -46l19 -53q70 20 116 47q51 29 113 95q66 76 100 186q33 115 33 240q0 127 -33 241q-35 109 -100 187q-66 74 -156 114q-86 39 -200 39q-111 0 -201 -39q-88 -39 -154 -114q-133 -162 -133 -428zM575 1653 q88 76 150 76q35 0 109.5 -35t113.5 -35q58 0 148 82v39q-86 -78 -148 -78q-37 0 -111.5 35t-111.5 35q-66 0 -150 -72v-47z" />
<glyph unicode="&#xd8;" d="M346 844q0 -100 27 -174q20 -70 73 -133q16 -20 58 -54l12 -6l-53 -174l61 -20l51 166l13 32v2l2 11q0 2 2 4t2 4v2q-35 20 -45 31q-27 16 -49 47q-45 59 -60 116q-20 55 -20 150q0 88 16 147q16 49 64 115q39 51 94 76q53 27 120.5 26.5t121.5 -26.5q57 -27 94 -76 q39 -49 61 -115q18 -68 19 -147q0 -82 -19 -150q-23 -70 -61 -116q-23 -29 -47 -47q-20 -18 -41 -27v-4q6 -20 6 -23l8 -32q35 14 59 32q31 20 64 56q47 49 78 133q23 80 22 174q0 96 -22 174q-31 84 -78 131q-45 53 -115 82q-25 12 -39 14l49 154l-63 20l-47 -162 q-16 2 -49 3q-88 0 -152 -29q-76 -33 -117 -82q-53 -63 -73 -131q-27 -72 -27 -174z" />
<glyph unicode="&#xd9;" horiz-adv-x="1185" d="M348 911q0 -133 25 -215q45 -158 151 -221q47 -25 86 -35l21 49q-52 21 -70 33q-102 61 -141 209q-20 72 -21 187v649h-51v-656zM596 1919l168 -264h61l-151 264h-78zM844 489l18 -53q57 18 88 37q113 66 154 211q27 86 26 205v678h-61v-670q0 -106 -20 -176 q-39 -145 -134 -201q-51 -25 -71 -31z" />
<glyph unicode="&#xda;" horiz-adv-x="1185" d="M348 889q0 -125 25 -205q45 -147 155 -211q31 -18 88 -37l19 53q-33 8 -72 31q-100 59 -135 201q-20 82 -20 176v670h-60v-678zM649 1655h68l166 264h-78zM844 489l20 -49q45 12 86 35q113 68 154 221q27 88 26 215v656h-53v-649q0 -104 -20 -187q-35 -141 -139 -209 q-18 -10 -74 -33z" />
<glyph unicode="&#xdb;" horiz-adv-x="1185" d="M348 889q0 -125 25 -205q45 -147 155 -211q31 -18 88 -37l19 53q-33 8 -72 31q-100 59 -135 201q-20 82 -20 176v670h-60v-678zM481 1647h27h35h6l2 2l190 186l185 -186l4 -2h2h37h28l-20 20l-227 240l-9 8l-10 -8l-231 -240zM844 489l20 -49q45 12 86 35q113 68 154 221 q27 88 26 215v656h-53v-649q0 -104 -20 -187q-35 -141 -139 -209q-18 -10 -74 -33z" />
<glyph unicode="&#xe0;" horiz-adv-x="989" d="M346 668q0 -55 16 -90q14 -37 48 -70q35 -29 79 -45q35 -14 105 -14h27v45h-17q-47 0 -74 10q-41 18 -61 39q-31 33 -41 59q-12 31 -12 74q0 49 24 88q25 45 64 67q45 29 104 43q49 10 135 11h115h21v-21v-76q0 -315 -2 -331h65v518q0 150 -65 225q-39 39 -80 53 q-125 51 -303 -14q-33 -12 -48 -20l17 -41q180 74 293 26q45 -20 67 -51q31 -35 44.5 -73t12.5 -71.5t-1 -76.5h-21h-106q-100 0 -177 -21q-78 -18 -126 -53q-53 -31 -76 -80q-27 -45 -27 -110zM510 1686l168 -263h70l-160 263h-78z" />
<glyph unicode="&#xe1;" horiz-adv-x="989" d="M346 668q0 -55 16 -90q14 -37 48 -70q35 -29 79 -45q35 -14 105 -14h27v45h-17q-47 0 -74 10q-41 18 -61 39q-31 33 -41 59q-12 31 -12 74q0 49 24 88q25 45 64 67q45 29 104 43q49 10 135 11h115h21v-21v-76q0 -315 -2 -331h65v518q0 150 -65 225q-39 39 -80 53 q-125 51 -303 -14q-33 -12 -48 -20l17 -41q180 74 293 26q45 -20 67 -51q31 -35 44.5 -73t12.5 -71.5t-1 -76.5h-21h-106q-100 0 -177 -21q-78 -18 -126 -53q-53 -31 -76 -80q-27 -45 -27 -110zM578 1423h69l164 263h-74z" />
<glyph unicode="&#xe2;" horiz-adv-x="989" d="M346 668q0 -55 16 -90q14 -37 48 -70q35 -29 79 -45q35 -14 105 -14h27v45h-17q-47 0 -74 10q-41 18 -61 39q-31 33 -41 59q-12 31 -12 74q0 49 24 88q25 45 64 67q45 29 104 43q49 10 135 11h115h21v-21v-76q0 -315 -2 -331h65v518q0 150 -65 225q-39 39 -80 53 q-125 51 -303 -14q-33 -12 -48 -20l17 -41q180 74 293 26q45 -20 67 -51q31 -35 44.5 -73t12.5 -71.5t-1 -76.5h-21h-106q-100 0 -177 -21q-78 -18 -126 -53q-53 -31 -76 -80q-27 -45 -27 -110zM428 1360h27h34h7l4 4l188 188l186 -186l3 -6h2h36h27l-18 20l-228 240l-8 8 l-10 -8l-232 -240z" />
<glyph unicode="&#xe3;" horiz-adv-x="1005" d="M346 668q0 -55 16 -90q14 -37 48 -70q35 -29 79 -45q35 -14 105 -14h27v45h-17q-47 0 -74 10q-41 18 -61 39q-31 33 -41 59q-12 31 -12 74q0 49 24 88q25 45 64 67q45 29 104 43q49 10 135 11h115h21v-21v-76q0 -315 -2 -331h65v518q0 150 -65 225q-39 39 -80 53 q-125 51 -303 -14q-33 -12 -48 -20l17 -41q180 74 293 26q45 -20 67 -51q31 -35 44.5 -73t12.5 -71.5t-1 -76.5h-21h-106q-100 0 -177 -21q-78 -18 -126 -53q-53 -31 -76 -80q-27 -45 -27 -110zM440 1378q80 76 148 76q37 0 111.5 -35t111.5 -35q57 0 147 82v39 q-86 -78 -147 -78q-37 0 -110.5 35t-112.5 35q-68 0 -148 -72v-47z" />
<glyph unicode="&#xe4;" horiz-adv-x="989" d="M346 668q0 -55 16 -90q14 -37 48 -70q35 -29 79 -45q35 -14 105 -14h27v45h-17q-47 0 -74 10q-41 18 -61 39q-31 33 -41 59q-12 31 -12 74q0 49 24 88q25 45 64 67q45 29 104 43q49 10 135 11h115h21v-21v-76q0 -315 -2 -331h65v518q0 150 -65 225q-39 39 -80 53 q-125 51 -303 -14q-33 -12 -48 -20l17 -41q180 74 293 26q45 -20 67 -51q31 -35 44.5 -73t12.5 -71.5t-1 -76.5h-21h-106q-100 0 -177 -21q-78 -18 -126 -53q-53 -31 -76 -80q-27 -45 -27 -110zM508 1493h65v104h-65v-104zM770 1493h61v104h-61v-104z" />
<glyph unicode="&#xe5;" horiz-adv-x="989" d="M346 668q0 -55 16 -90q14 -37 48 -70q35 -29 79 -45q35 -14 105 -14h27v45h-17q-47 0 -74 10q-41 18 -61 39q-31 33 -41 59q-12 31 -12 74q0 49 24 88q25 45 64 67q45 29 104 43q49 10 135 11h115h21v-21v-76q0 -315 -2 -331h65v518q0 150 -65 225q-39 39 -80 53 q-125 51 -303 -14q-33 -12 -48 -20l17 -41q180 74 293 26q45 -20 67 -51q31 -35 44.5 -73t12.5 -71.5t-1 -76.5h-21h-106q-100 0 -177 -21q-78 -18 -126 -53q-53 -31 -76 -80q-27 -45 -27 -110zM543 1480.5q0 -20.5 4 -32.5q0 -8 4 -25q2 -4 6 -13t6 -13q4 -4 10.5 -12.5 t8.5 -10.5q4 -2 10 -8t10 -8q2 -2 23 -12q23 -6 26 -9q4 0 14.5 -2t16.5 -2q4 0 14.5 2t14.5 2q6 2 14 5.5t12 3.5q20 8 25 12q2 2 9 7t11 9q12 12 17 23q2 4 5 11t5 11q0 2 2 13.5t4 15.5q0 6 1 16.5t1 16.5q0 37 -8 59q-2 4 -5 12.5t-5 12.5q0 2 -17 22q-10 10 -20 15 q-10 10 -25 16q-24 6 -26 6q-8 2 -29 2q-35 0 -57 -8q-2 -2 -10.5 -6t-12.5 -6q-8 -6 -20 -19q-2 -4 -8.5 -11t-10.5 -11l-12 -25q-4 -16 -4 -29q-4 -10 -4 -30.5zM584 1458v23v24q2 2 6 23l5 10t5 8q4 12 10 19q15 14 31 22q16 10 41 10q14 0 20 -4q10 0 19 -6l16 -8 q8 -6 15 -14q10 -10 12 -17q4 -4 10 -20q2 -4 2 -21q2 -8 2 -26q0 -16 -2 -23q0 -18 -2 -24q-4 -8 -10 -21q-2 -2 -12 -14q-8 -12 -15 -15q-2 -2 -8 -5t-8 -5q-12 -4 -19 -4q-6 -4 -20 -4t-20 4q-8 0 -21 4q-2 2 -7 5t-9 5q-2 4 -7.5 7.5t-7.5 7.5q-6 6 -10 18q-2 4 -5 9.5 t-5 7.5q-4 18 -6 24z" />
<glyph unicode="&#xe6;" horiz-adv-x="1613" d="M346 670q0 -57 16 -92q14 -37 48 -70q33 -25 79 -45q53 -14 105 -14h27v45h-17q-23 0 -74 10q-27 12 -61 39q-29 29 -41 59q-12 33 -12 74q0 53 24 92q18 37 64 68q43 22 104 38q49 10 135 11h115h21v-17v-80q0 -315 -2 -327h65v153q6 -12 41 -57q100 -109 277 -108 q115 0 213 38l-21 50q-94 -47 -219 -37t-201 90q-80 90 -88 258q0 10 2 38.5t2 43.5q6 70 29 121q20 57 55 100q45 45 86 66q61 20 101 20q61 0 104 -20q49 -27 78 -64q27 -29 53 -100q16 -43 21 -123l4 -25h-146v-37h205v41q0 94 -20 156q-18 72 -64 119q-82 100 -221 100 q-74 0 -141 -27q-68 -33 -113 -86q-25 -27 -49 -75q-25 74 -53 104q-35 35 -80 57q-127 45 -303 -14q-20 -12 -48 -20l17 -45q68 33 146.5 41t146.5 -15q35 -10 67 -47q31 -35 44.5 -72.5t12.5 -72.5t-1 -80h-21h-106q-90 0 -177 -17q-72 -16 -126 -53q-57 -39 -76 -84 q-27 -45 -27 -108z" />
<glyph unicode="&#xe7;" horiz-adv-x="862" d="M346 858q0 -98 27 -170q25 -72 78 -131q59 -55 122 -82q74 -29 158 -29q8 0 27.5 1.5t29.5 1.5q2 0 13.5 2t19.5 4v59q-18 -6 -33 -6q-14 -4 -51 -4q-78 0 -129 24q-55 18 -104 72q-41 43 -64 115q-20 51 -20 141t20 141q27 66 70 109q51 53 104 74q59 27 129 26 q10 0 29 -1t27 -1q10 -4 22 -4v57h-22q-14 2 -49 3q-96 0 -162 -29q-72 -27 -131 -82q-51 -51 -82 -125q-29 -70 -29 -166zM543 180h73l113 176h-78z" />
<glyph unicode="&#xe8;" horiz-adv-x="1046" d="M346 874q0 -207 100 -317q100 -109 277 -108q111 0 209 38l-21 50q-94 -47 -217 -37t-198 90q-84 92 -88 258q0 10 1 38.5t1 43.5q10 80 30 121q12 45 56 100q45 45 86 66q57 20 100 20q61 0 102 -20q37 -20 78 -64q23 -27 53 -100q12 -39 21 -123l2 -25h-141v-37h200v41 q0 94 -20 156q-16 63 -62 119q-86 100 -219 100q-74 0 -141 -27q-66 -29 -113 -86q-43 -51 -73 -129q-23 -80 -23 -168zM551 1665l170 -264h67l-159 264h-78z" />
<glyph unicode="&#xe9;" horiz-adv-x="1046" d="M346 858q0 -205 100 -315q100 -109 277 -109q111 0 209 39l-21 49q-94 -47 -217 -36.5t-198 89.5q-84 92 -88 261q0 10 1 38.5t1 40.5q10 80 30 123q10 39 56 99q41 43 86 63q39 23 100 23q63 0 102 -23q37 -16 78 -61q23 -27 53 -97q14 -49 21 -127l2 -24h-141v-35h200 v39q0 92 -20 156q-16 61 -62 120q-86 98 -219 99q-74 0 -141 -27q-61 -25 -113 -86q-41 -43 -73 -127q-23 -80 -23 -172zM621 1386h67l164 263h-74z" />
<glyph unicode="&#xea;" horiz-adv-x="1046" d="M346 874q0 -207 100 -317q100 -109 277 -108q111 0 209 38l-21 50q-94 -47 -217 -37t-198 90q-84 92 -88 258q0 10 1 38.5t1 43.5q10 80 30 121q12 45 56 100q45 45 86 66q57 20 100 20q61 0 102 -20q37 -20 78 -64q23 -27 53 -100q12 -39 21 -123l2 -25h-141v-37h200v41 q0 94 -20 156q-16 63 -62 119q-86 100 -219 100q-74 0 -141 -27q-66 -29 -113 -86q-43 -51 -73 -129q-23 -80 -23 -168zM416 1339h26h35h6l4 7l189 186l182 -186l6 -7h4h35h27l-19 21l-229 239l-6 9l-8 -9l-234 -239z" />
<glyph unicode="&#xeb;" horiz-adv-x="1046" d="M346 874q0 -207 100 -317q100 -109 277 -108q111 0 209 38l-21 50q-94 -47 -217 -37t-198 90q-84 92 -88 258q0 10 1 38.5t1 43.5q10 80 30 121q12 45 56 100q45 45 86 66q57 20 100 20q61 0 102 -20q37 -20 78 -64q23 -27 53 -100q12 -39 21 -123l2 -25h-141v-37h200v41 q0 94 -20 156q-16 63 -62 119q-86 100 -219 100q-74 0 -141 -27q-66 -29 -113 -86q-43 -51 -73 -129q-23 -80 -23 -168zM477 1358q88 76 152 76q37 0 111.5 -35t109.5 -35q61 0 147 82v39q-82 -78 -147 -78q-35 0 -108.5 34t-112.5 34q-72 0 -152 -70v-47z" />
<glyph unicode="&#xec;" horiz-adv-x="696" d="M428 1632l168 -262h68l-160 262h-76zM600 449h64v794h-64v-794z" />
<glyph unicode="&#xed;" horiz-adv-x="755" d="M487 1366h64l170 262h-74zM494 449h63v794h-63v-794z" />
<glyph unicode="&#xee;" horiz-adv-x="999" d="M440 1360h27h35h6l2 4l188 188l185 -186l6 -6h2h35h26l-16 20l-227 240l-11 8l-8 -8l-233 -240zM664 449h67v794h-67v-794z" />
<glyph unicode="&#xef;" horiz-adv-x="854" d="M494 1454h63v107h-63v-107zM623 449h65v794h-65v-794zM752 1454h63v107h-63v-107z" />
<glyph unicode="&#xf1;" horiz-adv-x="976" d="M346 449h64q0 133 2 398t2 396h-68v-794zM360 1384q84 76 148 76q37 0 112.5 -34.5t114.5 -34.5q60 -1 144 79v37q-84 -76 -144 -75q-39 0 -114.5 34.5t-112.5 34.5q-70 0 -148 -69v-48zM578 1237l12 -45q84 31 168 -6q41 -23 59 -60q25 -37 33 -88q12 -51 12 -123v-466 h64v165v250q-1 181 -15 226q-10 39 -34 75q-27 37 -52 54q-31 25 -57 30q-31 10 -78 11q-45 0 -76 -9l-18 -6t-18 -8z" />
<glyph unicode="&#xf2;" d="M346 844q0 -100 27 -174q20 -70 73 -133q16 -20 58 -54q35 -25 69 -34h2l13 32q4 18 6 21v2q-16 10 -45 26q-31 27 -49 52q-45 59 -60 116q-20 55 -20 150q0 88 16 147q18 55 64 111q37 53 94 80q63 25 120.5 24.5t121.5 -24.5q53 -25 94 -76q43 -59 61 -115 q18 -68 19 -147q0 -84 -19 -152q-20 -63 -61 -114q-10 -14 -47 -52q-35 -20 -41 -22v-6q0 -2 2 -6q2 -10 4 -15l8 -32q29 10 59 28q37 31 64 60q47 49 78 133q23 80 22 174q0 96 -22 174q-33 84 -78 131q-45 53 -115 82q-59 29 -149 29q-88 0 -152 -29q-72 -31 -117 -82 q-53 -63 -73 -131q-27 -72 -27 -174zM522 1655l168 -262h68l-158 262h-78z" />
<glyph unicode="&#xf3;" d="M346 844q0 -100 27 -174q20 -70 73 -133q16 -20 58 -54q35 -25 69 -34h2l13 32q4 18 6 21v2q-16 10 -45 26q-31 27 -49 52q-45 59 -60 116q-20 55 -20 150q0 88 16 147q18 55 64 111q37 53 94 80q63 25 120.5 24.5t121.5 -24.5q53 -25 94 -76q43 -59 61 -115 q18 -68 19 -147q0 -84 -19 -152q-20 -63 -61 -114q-10 -14 -47 -52q-35 -20 -41 -22v-6q0 -2 2 -6q2 -10 4 -15l8 -32q29 10 59 28q37 31 64 60q47 49 78 133q23 80 22 174q0 96 -22 174q-33 84 -78 131q-45 53 -115 82q-59 29 -149 29q-88 0 -152 -29q-72 -31 -117 -82 q-53 -63 -73 -131q-27 -72 -27 -174zM649 1393h66l164 262h-74z" />
<glyph unicode="&#xf4;" d="M346 844q0 -100 27 -174q20 -70 73 -133q16 -20 58 -54q35 -25 69 -34h2l13 32q4 18 6 21v2q-16 10 -45 26q-31 27 -49 52q-45 59 -60 116q-20 55 -20 150q0 88 16 147q18 55 64 111q37 53 94 80q63 25 120.5 24.5t121.5 -24.5q53 -25 94 -76q43 -59 61 -115 q18 -68 19 -147q0 -84 -19 -152q-20 -63 -61 -114q-10 -14 -47 -52q-35 -20 -41 -22v-6q0 -2 2 -6q2 -10 4 -15l8 -32q29 10 59 28q37 31 64 60q47 49 78 133q23 80 22 174q0 96 -22 174q-33 84 -78 131q-45 53 -115 82q-59 29 -149 29q-88 0 -152 -29q-72 -31 -117 -82 q-53 -63 -73 -131q-27 -72 -27 -174zM455 1386h28h37h2l2 5l191 188l184 -188l4 -5h6h35h27l-19 21l-229 240l-8 8l-6 -8l-234 -240z" />
<glyph unicode="&#xf5;" d="M346 844q0 -100 27 -174q20 -70 73 -133q16 -20 58 -54q35 -25 69 -34h2l13 32q4 18 6 21v2q-16 10 -45 26q-31 27 -49 52q-45 59 -60 116q-20 55 -20 150q0 88 16 147q18 55 64 111q37 53 94 80q63 25 120.5 24.5t121.5 -24.5q53 -25 94 -76q43 -59 61 -115 q18 -68 19 -147q0 -84 -19 -152q-20 -63 -61 -114q-10 -14 -47 -52q-35 -20 -41 -22v-6q0 -2 2 -6q2 -10 4 -15l8 -32q29 10 59 28q37 31 64 60q47 49 78 133q23 80 22 174q0 96 -22 174q-33 84 -78 131q-45 53 -115 82q-59 29 -149 29q-88 0 -152 -29q-72 -31 -117 -82 q-53 -63 -73 -131q-27 -72 -27 -174zM463 1405q80 76 147 76q37 0 112 -35t109 -35q58 0 152 82v35q-92 -76 -152 -76q-33 0 -106.5 36t-114.5 36q-72 0 -147 -72v-47z" />
<glyph unicode="&#xf6;" d="M346 844q0 -100 27 -174q20 -70 73 -133q16 -20 58 -54q35 -25 69 -34h2l13 32q4 18 6 21v2q-16 10 -45 26q-31 27 -49 52q-45 59 -60 116q-20 55 -20 150q0 88 16 147q18 55 64 111q37 53 94 80q63 25 120.5 24.5t121.5 -24.5q53 -25 94 -76q43 -59 61 -115 q18 -68 19 -147q0 -84 -19 -152q-20 -63 -61 -114q-10 -14 -47 -52q-35 -20 -41 -22v-6q0 -2 2 -6q2 -10 4 -15l8 -32q29 10 59 28q37 31 64 60q47 49 78 133q23 80 22 174q0 96 -22 174q-33 84 -78 131q-45 53 -115 82q-59 29 -149 29q-88 0 -152 -29q-72 -31 -117 -82 q-53 -63 -73 -131q-27 -72 -27 -174zM551 1473h65v106h-65v-106zM809 1473h68v106h-68v-106z" />
<glyph unicode="&#xf8;" d="M346 844q0 -100 27 -174q20 -70 73 -133q16 -20 58 -54l12 -6l-53 -174l61 -20l51 166l13 32v2l2 11q0 2 2 4t2 4v2q-35 20 -45 31q-27 16 -49 47q-45 59 -60 116q-20 55 -20 150q0 88 16 147q16 49 64 115q39 51 94 76q53 27 120.5 26.5t121.5 -26.5q57 -27 94 -76 q39 -49 61 -115q18 -68 19 -147q0 -82 -19 -150q-23 -70 -61 -116q-23 -29 -47 -47q-20 -18 -41 -27v-4q6 -20 6 -23l8 -32q35 14 59 32q31 20 64 56q47 49 78 133q23 80 22 174q0 96 -22 174q-31 84 -78 131q-45 53 -115 82q-25 12 -39 14l49 154l-63 20l-47 -162 q-16 2 -49 3q-88 0 -152 -29q-76 -33 -117 -82q-53 -63 -73 -131q-27 -72 -27 -174z" />
<glyph unicode="&#xf9;" horiz-adv-x="1009" d="M346 774q0 -90 16 -145q14 -57 48 -101q68 -80 192 -79q51 0 86 8q27 6 47 18v47q-47 -20 -104 -20q-55 0 -96 18q-47 23 -72 58q-31 47 -41 92q-12 51 -12 127v456h-64v-479zM469 1700l168 -266h68l-158 266h-78zM897 457h66v796h-66v-796z" />
<glyph unicode="&#xfa;" horiz-adv-x="1009" d="M346 774q0 -90 16 -145q14 -57 48 -101q68 -80 192 -79q51 0 86 8q27 6 47 18v47q-47 -20 -104 -20q-55 0 -96 18q-47 23 -72 58q-31 47 -41 92q-12 51 -12 127v456h-64v-479zM623 1434h67l166 266h-74zM897 457h66v796h-66v-796z" />
<glyph unicode="&#xfb;" horiz-adv-x="1009" d="M346 774q0 -90 16 -145q14 -57 48 -101q68 -80 192 -79q51 0 86 8q27 6 47 18v47q-47 -20 -104 -20q-55 0 -96 18q-47 23 -72 58q-31 47 -41 92q-12 51 -12 127v456h-64v-479zM395 1425h29h37h2l4 2l188 191l187 -186l2 -7h6h35h26l-16 21l-231 240l-9 8l-6 -8l-233 -240 zM897 457h66v796h-66v-796z" />
<glyph unicode="&#xfc;" horiz-adv-x="1009" d="M346 774q0 -90 16 -145q14 -57 48 -101q68 -80 192 -79q51 0 86 8q27 6 47 18v47q-47 -20 -104 -20q-55 0 -96 18q-47 23 -72 58q-31 47 -41 92q-12 51 -12 127v456h-64v-479zM510 1493h68v106h-68v-106zM774 1493h62v106h-62v-106zM897 457h66v796h-66v-796z" />
<glyph unicode="&#x2000;" horiz-adv-x="991" />
<glyph unicode="&#x2001;" horiz-adv-x="1982" />
<glyph unicode="&#x2002;" horiz-adv-x="991" />
<glyph unicode="&#x2003;" horiz-adv-x="1982" />
<glyph unicode="&#x2004;" horiz-adv-x="660" />
<glyph unicode="&#x2005;" horiz-adv-x="495" />
<glyph unicode="&#x2006;" horiz-adv-x="330" />
<glyph unicode="&#x2007;" horiz-adv-x="330" />
<glyph unicode="&#x2008;" horiz-adv-x="247" />
<glyph unicode="&#x2009;" horiz-adv-x="396" />
<glyph unicode="&#x200a;" horiz-adv-x="110" />
<glyph unicode="&#x2010;" horiz-adv-x="905" d="M483 999h379v60h-379v-60z" />
<glyph unicode="&#x2011;" horiz-adv-x="905" d="M483 999h379v60h-379v-60z" />
<glyph unicode="&#x2012;" horiz-adv-x="905" d="M483 999h379v60h-379v-60z" />
<glyph unicode="&#x2013;" horiz-adv-x="1550" d="M483 999h1024v60h-1024v-60z" />
<glyph unicode="&#x2014;" horiz-adv-x="2574" d="M483 999h2048v60h-2048v-60z" />
<glyph unicode="&#x202f;" horiz-adv-x="396" />
<glyph unicode="&#x205f;" horiz-adv-x="495" />
<glyph unicode="&#x25fc;" horiz-adv-x="1259" d="M0 0v1260h1260v-1260h-1260z" />
</font>
</defs>
</svg>
