<?xml version="1.0" standalone="no"?>
<!DOCTYPE svg PUBLIC "-//W3C//DTD SVG 20010904//EN"
 "http://www.w3.org/TR/2001/REC-SVG-20010904/DTD/svg10.dtd">
<svg version="1.0" xmlns="http://www.w3.org/2000/svg"
 width="1024.000000pt" height="1024.000000pt" viewBox="0 0 1024.000000 1024.000000"
 preserveAspectRatio="xMidYMid meet">
<metadata>
Created by potrace 1.11, written by Peter Selinger 2001-2013
</metadata>
<g transform="translate(0.000000,1024.000000) scale(0.100000,-0.100000)"
fill="#000000" stroke="none">
<path d="M10215 9270 c-3 -5 -14 -10 -24 -10 -10 0 -23 -6 -29 -13 -8 -9 -1
-11 34 -8 35 2 44 7 44 22 0 20 -15 26 -25 9z"/>
<path d="M10220 9223 c-35 -10 -60 -28 -60 -43 0 -10 -19 -27 -47 -41 -62 -31
-105 -60 -121 -82 -8 -11 -21 -16 -32 -12 -11 3 -20 0 -24 -10 -3 -8 -17 -15
-31 -15 -15 0 -23 -4 -20 -10 7 -11 -88 -61 -107 -57 -7 2 -10 2 -5 0 4 -3 -2
-17 -13 -33 -11 -15 -20 -31 -20 -35 0 -3 -11 -22 -25 -42 -13 -20 -22 -40
-20 -44 3 -4 -4 -5 -15 -2 -11 3 -23 9 -26 14 -9 15 -26 10 -20 -7 5 -12 1
-14 -15 -9 -14 5 -20 3 -18 -7 4 -29 -2 -40 -16 -34 -8 3 -15 1 -15 -5 0 -5
-12 -21 -27 -34 -23 -20 -25 -24 -10 -25 21 0 23 -26 2 -38 -9 -4 -17 -18 -18
-29 0 -12 -6 -19 -13 -16 -7 2 -15 0 -18 -6 -4 -7 -15 -7 -31 -1 -16 6 -27 5
-34 -4 -17 -20 -130 -68 -142 -60 -8 4 -8 0 0 -15 10 -17 9 -21 -4 -21 -9 0
-13 5 -10 10 10 16 -1 11 -16 -7 -12 -15 -12 -16 1 -8 12 6 13 5 3 -5 -10 -11
-15 -11 -29 1 -13 10 -16 11 -10 1 5 -9 1 -15 -13 -19 -12 -3 -18 -10 -14 -17
3 -6 2 -7 -2 -3 -5 4 -58 -41 -117 -100 -59 -59 -108 -103 -108 -97 0 5 16 25
35 44 19 18 31 38 28 44 -3 6 -3 8 2 4 9 -9 35 9 35 25 0 6 -3 7 -7 4 -3 -4
-12 -2 -20 5 -11 9 -12 7 -7 -7 6 -14 3 -16 -14 -11 -23 8 -41 -12 -22 -24 8
-5 7 -9 -5 -13 -9 -4 -13 -3 -10 3 3 6 3 10 0 10 -7 0 -88 -43 -95 -50 -18
-20 -72 -50 -89 -50 -12 0 -21 -3 -21 -8 0 -12 -67 -45 -82 -40 -8 3 0 12 20
22 18 9 30 21 27 27 -4 5 -13 3 -21 -6 -9 -8 -24 -20 -34 -25 -11 -6 -17 -17
-14 -25 4 -9 0 -15 -9 -15 -8 0 -17 6 -20 13 -2 6 -7 9 -11 5 -4 -3 -3 -15 3
-26 9 -17 8 -19 -8 -15 -10 3 -21 -2 -24 -10 -8 -22 -86 -54 -131 -55 -21 0
-43 -5 -49 -11 -6 -6 -20 -11 -30 -11 -10 0 -31 -6 -45 -14 -33 -17 -112 -36
-150 -36 -15 0 -34 -5 -42 -11 -13 -9 -12 -10 3 -5 11 4 16 2 11 -5 -3 -6 -22
-8 -48 -4 -22 3 -36 3 -29 -2 6 -5 -7 -9 -34 -10 -24 -1 -54 -8 -66 -16 -12
-8 -38 -18 -57 -22 -19 -4 -39 -10 -45 -14 -15 -10 -71 -27 -150 -46 -38 -10
-74 -21 -79 -26 -6 -5 -26 -9 -45 -9 -42 0 -100 -15 -156 -40 -35 -16 -99 -37
-212 -71 -18 -6 -38 -7 -44 -3 -8 4 -9 3 -5 -4 5 -9 -8 -12 -46 -12 -29 -1
-100 -7 -158 -14 -58 -7 -107 -10 -110 -6 -11 16 -76 16 -129 -1 -31 -10 -47
-19 -36 -20 11 0 0 -6 -23 -11 -40 -9 -42 -11 -25 -23 17 -14 17 -14 -7 -15
-18 0 -21 -3 -12 -9 9 -6 5 -8 -15 -9 -37 -1 -95 -13 -108 -22 -20 -14 -75
-29 -80 -21 -2 5 -16 11 -30 13 -18 4 -25 1 -25 -11 0 -13 -2 -13 -9 -2 -10
15 -31 7 -31 -12 0 -8 -23 -12 -75 -11 -41 1 -72 -2 -69 -7 3 -5 13 -10 22
-10 9 -1 -14 -5 -53 -9 -52 -5 -73 -4 -83 7 -16 15 -44 17 -58 3 -5 -5 -63
-12 -129 -15 -132 -6 -212 -20 -234 -43 -10 -10 -27 -12 -55 -9 -23 3 -34 2
-26 -3 18 -11 -90 -25 -120 -15 -15 5 -25 2 -31 -6 -7 -12 -450 -14 -2724 -17
l-2715 -2 0 -2968 0 -2967 164 164 c141 141 163 166 149 176 -9 7 -13 17 -9
24 6 9 12 7 21 -6 13 -17 15 -16 41 10 28 31 48 29 21 -1 -10 -10 -14 -22 -10
-27 5 -4 3 -5 -3 -2 -15 9 -32 -13 -28 -37 2 -14 0 -16 -9 -7 -8 8 -17 5 -34
-15 -12 -15 -20 -30 -17 -35 3 -5 -1 -7 -8 -4 -7 3 -70 -52 -146 -128 l-132
-133 2 -207 3 -207 150 151 c83 84 142 149 133 146 -13 -4 -15 -2 -11 10 4 9
2 14 -3 10 -11 -6 -3 75 10 105 8 18 46 32 46 16 0 -5 4 -6 10 -3 14 9 12 42
-2 48 -10 3 -9 9 2 23 29 36 40 64 40 98 0 21 6 36 15 40 9 3 15 18 15 37 0
22 5 32 20 36 20 5 28 23 10 23 -5 0 -10 7 -10 15 0 8 7 15 15 15 8 0 15 -4
15 -10 0 -5 5 -10 10 -10 6 0 10 6 10 14 0 7 10 17 23 20 20 6 20 8 4 14 -15
7 -13 12 18 42 19 19 35 40 35 48 0 18 48 64 85 80 16 8 35 22 42 32 7 10 27
21 43 25 17 4 28 11 25 15 -3 5 5 20 17 32 20 20 23 21 26 5 3 -15 15 -17 85
-15 46 1 63 3 39 5 -55 5 -55 23 1 25 l42 1 -45 7 -45 7 45 3 45 3 -40 7 c-37
7 -36 7 11 5 45 -3 51 -1 47 14 -6 25 15 31 81 24 64 -7 74 -20 18 -26 -24 -3
-20 -3 11 -2 81 4 79 25 -3 33 -27 2 -50 9 -50 15 0 6 22 8 60 4 37 -4 60 -3
60 3 0 6 21 10 48 10 26 0 76 5 112 10 35 5 67 6 70 2 8 -11 290 -14 290 -3 0
6 -37 12 -82 14 -67 2 -60 3 40 5 95 2 122 5 122 16 0 9 32 17 120 26 66 7
120 17 120 21 0 5 18 9 40 9 27 0 40 4 40 14 0 21 89 26 330 19 187 -5 219 -4
245 10 27 15 28 16 8 17 -13 0 -23 4 -23 9 0 5 10 11 23 14 12 2 30 8 40 12
12 5 17 3 17 -8 0 -9 -8 -18 -17 -20 -10 -3 8 -5 40 -6 32 0 57 3 57 9 0 6 33
10 79 10 53 0 81 4 83 12 3 8 39 12 121 11 64 0 117 4 117 9 0 5 125 7 283 6
251 -3 284 -1 299 14 11 11 13 19 5 27 -13 13 8 42 26 36 19 -7 907 -11 907
-4 0 8 812 22 1078 19 142 -2 202 1 202 9 0 7 -37 10 -122 7 l-123 -5 102 8
c56 5 130 7 165 6 35 -2 317 -4 628 -6 397 -2 502 -5 355 -9 l-210 -6 203 -2
c149 -1 202 -5 202 -14 0 -9 3 -9 11 -1 11 11 69 -4 69 -18 0 -4 11 -10 25
-13 14 -4 25 -11 25 -17 0 -6 4 -8 10 -4 17 10 58 -6 63 -26 3 -10 13 -19 22
-19 21 0 67 -35 58 -44 -4 -3 4 -30 16 -59 13 -28 29 -65 36 -82 6 -16 19 -46
28 -66 11 -26 13 -47 7 -73 -4 -21 -4 -34 1 -30 5 3 9 -20 9 -51 0 -32 4 -54
9 -50 5 3 12 1 16 -4 3 -6 -6 -8 -22 -6 -27 4 -27 4 -5 -7 12 -6 22 -17 22
-25 0 -12 13 -18 35 -13 5 1 7 -1 3 -5 -4 -4 19 -26 50 -49 298 -220 414 -647
270 -993 -125 -303 -411 -505 -736 -520 -132 -7 -220 6 -336 48 -224 81 -404
257 -501 489 -10 25 -18 50 -17 55 1 6 -9 15 -22 21 -20 10 -23 9 -19 -4 5
-12 -3 -14 -50 -10 -42 3 -57 1 -57 -8 0 -7 -4 -16 -10 -19 -6 -3 -7 1 -4 9 4
11 0 16 -11 16 -11 0 -15 -5 -11 -16 3 -8 2 -12 -3 -9 -5 3 -13 -5 -16 -17 -4
-13 -22 -53 -41 -91 -88 -177 -251 -328 -437 -405 -176 -74 -399 -83 -577 -23
-238 80 -438 264 -526 484 l-19 47 -120 -5 c-244 -12 -431 -25 -465 -34 -19
-5 -63 -13 -98 -16 -34 -4 -69 -13 -77 -21 -15 -15 -208 -30 -343 -28 -50 1
-62 -1 -58 -12 4 -10 -2 -14 -19 -14 -14 0 -25 -3 -25 -8 0 -4 -14 -13 -31
-21 -26 -11 -36 -12 -52 -2 -10 7 -16 8 -13 3 3 -6 3 -12 -1 -15 -5 -2 -2 -2
5 -1 6 2 12 -5 12 -16 0 -11 -5 -20 -11 -20 -5 0 -8 4 -5 8 3 5 -1 9 -9 9 -8
0 -13 -3 -10 -5 9 -10 -18 -32 -39 -32 -13 0 -52 -31 -101 -80 -44 -44 -84
-80 -89 -80 -10 0 5 17 120 135 34 35 55 61 46 58 -11 -5 -13 -3 -7 8 5 8 -1
6 -13 -5 -12 -10 -20 -23 -19 -29 1 -6 -9 -12 -23 -12 -22 0 -35 -13 -24 -24
2 -2 4 1 4 8 0 7 5 9 11 5 8 -4 7 -10 -1 -18 -9 -8 -16 -5 -31 13 -18 22 -19
22 -19 3 0 -12 -4 -24 -10 -27 -6 -3 -7 1 -4 9 5 12 0 16 -19 16 -14 0 -29 -4
-32 -10 -3 -5 -21 -10 -39 -10 -33 0 -75 -11 -131 -34 -89 -38 -97 -39 -105
-27 -5 10 -9 9 -13 -4 -4 -9 -3 -13 3 -10 5 3 7 0 5 -7 -6 -15 -75 -21 -75 -7
0 6 3 8 7 6 5 -3 17 -1 28 4 16 6 14 7 -10 6 -26 -1 -75 -38 -75 -56 0 -3 -26
-4 -57 -1 -40 4 -77 0 -118 -12 -33 -10 -74 -18 -92 -18 -17 0 -35 -4 -38 -10
-3 -5 -1 -10 4 -10 18 0 12 -26 -9 -45 -10 -9 -25 -15 -32 -12 -14 5 -66 -31
-60 -41 2 -3 -6 -9 -17 -14 -16 -6 -21 -3 -22 10 0 16 -1 16 -7 0 -8 -21 -22
-12 -42 26 -11 21 -16 25 -18 13 -4 -17 0 -17 -212 -23 -86 -2 -123 -15 -172
-60 -25 -24 -58 -46 -72 -50 -14 -3 -26 -10 -26 -15 0 -5 -9 -9 -20 -9 -11 0
-20 -5 -20 -10 0 -7 -6 -7 -17 -1 -10 6 -55 18 -100 28 -46 9 -83 21 -83 25 0
4 -17 8 -38 8 -21 0 -47 7 -58 15 -10 8 -45 17 -77 21 -31 4 -60 11 -63 15 -3
5 -23 9 -45 9 -21 0 -39 4 -39 9 0 4 -35 11 -77 14 -43 3 -79 11 -81 16 -5 14
-82 14 -82 1 0 -5 7 -10 15 -10 9 0 21 -5 28 -10 7 -6 23 -19 36 -30 l24 -20
-51 0 c-63 0 -69 -17 -10 -23 l43 -4 -42 -1 c-24 -1 -43 -7 -43 -13 0 -14 152
-2 161 14 4 5 15 7 25 2 17 -7 16 -8 -8 -15 -14 -4 -58 -11 -98 -15 -65 -7
-73 -5 -91 14 -13 13 -15 21 -7 21 7 0 -23 36 -67 80 -44 44 -83 80 -88 80
-22 0 -67 60 -67 90 0 22 -4 29 -13 24 -9 -6 -9 -5 0 7 10 12 11 37 3 59 -1 3
-2 9 -1 14 3 13 -23 -9 -93 -76 -33 -32 -62 -56 -64 -53 -3 3 4 16 16 28 12
13 19 27 15 32 -5 4 -3 5 3 2 6 -4 20 3 30 15 11 12 14 18 7 15 -7 -4 -14 1
-17 11 -8 25 -86 74 -108 69 -16 -5 -18 3 -18 78 0 70 -3 83 -16 81 -8 -1 -80
-67 -160 -147 l-144 -144 0 -292 0 -293 5120 0 5120 0 0 4327 0 4328 -207
-205 -208 -205 208 210 207 211 -2 207 -3 207 -346 -343 c-190 -188 -381 -376
-425 -417 -43 -41 114 119 349 356 l428 430 -3 60 c-2 48 -6 60 -18 57z
m-2200 -1267 c0 -2 -7 -7 -16 -10 -8 -3 -12 -2 -9 4 6 10 25 14 25 6z m-4652
-1216 c56 -82 102 -157 102 -166 0 -16 -26 -43 -42 -44 -4 0 -32 35 -62 77
l-56 77 -2 -394 -3 -395 -35 0 -35 0 -3 480 c-1 264 0 490 3 502 3 13 11 20
18 17 6 -3 58 -72 115 -154z m520 -339 c1 -272 -1 -498 -5 -502 -5 -5 -13 -5
-19 -1 -13 9 -214 298 -214 308 0 13 33 44 46 44 7 0 35 -32 63 -72 l51 -72 0
390 c0 215 3 394 7 398 4 4 21 6 38 4 l30 -3 3 -494z m-2582 468 c173 -32 294
-166 329 -366 18 -98 18 -158 0 -256 -27 -154 -113 -279 -227 -332 -71 -33
-94 -32 -106 4 -12 35 -14 33 53 66 129 63 195 199 195 404 0 179 -65 312
-181 376 -74 40 -179 46 -261 16 -169 -64 -255 -291 -203 -536 28 -131 94
-223 189 -266 55 -24 56 -26 44 -60 -12 -36 -35 -37 -106 -4 -101 47 -183 159
-218 297 -23 89 -15 299 15 382 75 211 256 316 477 275z m4842 -21 c119 -44
213 -159 248 -301 20 -84 23 -236 5 -322 -29 -137 -117 -258 -225 -309 -63
-30 -91 -33 -100 -10 -14 37 -6 53 38 73 93 40 161 128 192 244 19 70 18 238
-1 312 -43 162 -143 253 -290 263 -123 8 -214 -35 -277 -129 -53 -80 -70 -139
-75 -259 -10 -213 57 -359 193 -426 55 -27 62 -40 44 -75 -14 -25 -31 -24 -96
8 -105 51 -194 176 -223 311 -18 84 -14 238 8 323 45 173 161 292 313 318 72
13 180 4 246 -21z m-970 -19 l3 -36 -65 -5 c-113 -9 -182 -72 -173 -156 6 -60
53 -105 197 -195 198 -123 249 -191 237 -313 -9 -92 -58 -159 -147 -205 -51
-26 -181 -36 -285 -22 l-60 8 -3 38 -3 38 73 -8 c220 -24 316 19 334 150 6 39
2 53 -21 92 -22 39 -52 63 -183 149 -169 110 -205 144 -223 209 -12 47 -5 127
16 166 40 77 160 133 270 128 27 -2 30 -6 33 -38z m3650 32 c8 -5 12 -22 10
-42 -3 -32 -5 -34 -38 -31 -62 5 -173 -18 -236 -48 -76 -37 -136 -101 -177
-188 -30 -63 -32 -74 -32 -182 0 -104 3 -121 27 -173 38 -81 115 -158 191
-193 52 -23 79 -29 165 -32 l102 -4 0 -40 0 -41 -107 5 c-128 6 -193 28 -281
92 -116 86 -182 225 -182 385 0 149 35 245 124 339 58 62 104 93 178 123 79
31 227 49 256 30z m-5788 -36 l0 -35 -190 0 -190 0 0 -410 0 -410 190 0 190 0
0 -40 0 -40 -232 2 -233 3 -3 470 c-1 259 0 476 3 483 3 9 60 12 235 12 l230
0 0 -35z m3670 -325 c5 -347 6 -356 29 -408 25 -56 77 -108 123 -124 31 -11
36 -33 14 -63 -12 -17 -18 -18 -55 -6 -52 15 -115 71 -143 125 -47 92 -51 124
-55 474 -3 183 -2 340 1 348 4 11 17 14 43 12 l38 -3 5 -355z m598 75 c4 -398
-13 -508 -93 -603 -28 -33 -111 -82 -140 -82 -14 0 -35 36 -35 60 0 5 16 14
35 20 44 14 108 87 131 148 16 41 19 90 21 382 2 184 6 341 8 348 3 8 17 12
37 10 l33 -3 3 -280z m2202 250 l0 -35 -190 0 -190 0 0 -410 0 -410 190 0 190
0 0 -40 0 -40 -229 0 c-199 0 -230 2 -235 16 -8 20 -8 918 0 938 5 14 36 16
235 16 l229 0 0 -35z m-7277 -4 c105 -51 141 -111 142 -236 0 -106 -18 -151
-86 -208 -57 -49 -116 -67 -241 -74 l-108 -6 -2 -206 -3 -206 -40 0 -40 0 0
245 0 245 140 5 c120 4 147 9 187 28 77 38 115 122 97 218 -20 104 -81 144
-235 152 l-103 5 -3 -34 c-3 -32 -5 -34 -43 -34 l-40 0 -3 54 c-5 87 -14 83
171 79 146 -3 167 -5 210 -27z m5646 14 c125 -38 189 -164 149 -297 -14 -48
-86 -130 -128 -148 -16 -7 -30 -16 -30 -21 0 -5 45 -110 100 -233 55 -122 100
-228 100 -235 0 -8 -14 -11 -42 -9 l-43 3 -113 253 c-62 139 -110 257 -107
262 4 6 15 10 26 10 26 0 89 32 111 57 49 54 60 141 27 209 -31 65 -85 88
-221 92 l-107 4 -3 -33 c-3 -32 -5 -34 -43 -34 l-40 0 -3 54 c-2 29 -1 60 2
67 8 21 294 20 365 -1z m-4999 -440 l0 -35 -50 0 -50 0 0 35 0 35 50 0 50 0 0
-35z m6468 -3 l3 -33 -48 3 c-37 2 -49 7 -51 21 -7 37 6 48 50 45 41 -3 43 -5
46 -36z m-1753 -322 l0 -175 -40 0 -40 0 -3 165 c-1 90 0 170 3 178 3 9 18 12
42 10 l38 -3 0 -175z m-5647 -740 c56 -82 102 -157 102 -166 0 -16 -26 -43
-42 -44 -4 0 -32 35 -62 77 l-56 77 -2 -394 -3 -395 -35 0 -35 0 -3 490 c-1
270 0 496 3 502 9 25 32 0 133 -147z m520 -333 c1 -269 -1 -495 -6 -502 -4 -8
-12 -11 -18 -7 -13 9 -214 298 -214 308 0 13 33 44 46 44 7 0 35 -32 63 -72
l51 -72 0 398 0 397 38 -3 37 -3 3 -488z m5797 -7 c0 -429 -2 -495 -15 -495
-8 0 -61 67 -119 149 -107 154 -111 164 -67 190 20 12 20 11 91 -89 l35 -50 0
391 c0 215 3 394 7 398 4 4 21 6 38 4 l30 -3 0 -495z m-520 343 c55 -80 102
-153 103 -160 4 -15 -25 -53 -39 -53 -4 0 -32 34 -61 76 l-53 76 -5 -394 -5
-393 -23 -3 c-53 -8 -52 -18 -52 503 0 265 3 485 7 488 16 17 34 -3 128 -140z
m-4141 -127 c75 -145 136 -271 136 -279 0 -8 -11 -22 -25 -31 -24 -16 -25 -15
-48 21 -13 21 -50 85 -83 143 l-59 105 -5 -340 -5 -340 -35 0 -35 0 -3 480
c-1 264 0 486 3 493 2 6 9 12 14 12 5 0 71 -119 145 -264z m641 -232 l0 -489
-32 -3 c-18 -2 -34 -2 -35 0 -1 2 -5 156 -8 343 l-5 340 -64 -115 c-35 -63
-73 -128 -84 -143 l-19 -28 -24 22 c-13 12 -24 27 -24 32 0 22 274 537 284
534 8 -3 11 -142 11 -493z m2713 477 c8 -5 12 -22 10 -42 -3 -32 -5 -34 -38
-31 -57 5 -171 -17 -232 -45 -73 -32 -139 -102 -181 -191 -30 -63 -32 -73 -32
-182 0 -104 3 -121 27 -173 38 -81 115 -158 191 -193 52 -23 79 -29 165 -32
l102 -4 0 -40 0 -41 -107 5 c-128 6 -193 28 -281 92 -71 53 -134 143 -162 233
-38 124 -22 296 37 405 36 65 137 159 209 193 86 41 258 68 292 46z m-5323
-486 l0 -480 -40 0 -40 0 -3 483 -2 483 42 -3 43 -3 0 -480z m3285 450 l0 -35
-190 0 -190 0 0 -410 0 -410 190 0 190 0 0 -40 0 -40 -229 0 c-199 0 -230 2
-235 16 -8 20 -8 918 0 938 5 14 36 16 235 16 l229 0 0 -35z m452 26 c85 -11
178 -55 243 -113 93 -84 135 -196 135 -358 0 -166 -41 -272 -142 -365 -104
-97 -201 -128 -385 -123 l-108 3 0 55 0 55 43 3 c37 3 42 1 42 -17 0 -19 6
-21 69 -21 181 0 315 94 371 261 29 84 25 243 -9 330 -56 145 -177 219 -361
219 -64 0 -69 -2 -72 -22 -3 -20 -9 -23 -43 -23 l-40 0 -3 49 c-5 76 -5 76
100 76 51 -1 123 -5 160 -9z m842 -7 c9 -24 7 -927 -3 -942 -5 -8 -22 -12 -42
-10 l-34 3 -3 470 c-1 259 0 476 3 483 7 18 72 15 79 -4z m1220 0 c9 -24 7
-927 -3 -942 -5 -8 -22 -12 -42 -10 l-34 3 -3 470 c-1 259 0 476 3 483 7 18
72 15 79 -4z m1506 -19 l0 -35 -190 0 -190 0 0 -410 0 -410 190 0 190 0 0 -40
0 -40 -229 0 c-199 0 -230 2 -235 16 -8 20 -8 918 0 938 5 14 36 16 235 16
l229 0 0 -35z m-4182 -433 l3 -33 -48 3 c-37 2 -49 7 -51 21 -7 37 6 48 50 45
41 -3 43 -5 46 -36z m4020 0 l3 -33 -48 3 c-37 2 -49 7 -51 21 -7 37 6 48 50
45 41 -3 43 -5 46 -36z m-6898 -1322 c0 -263 0 -270 -20 -270 -19 0 -20 7 -20
263 0 145 3 267 7 270 3 4 12 7 20 7 10 0 13 -52 13 -270z m2858 -3 c2 -262 2
-267 -18 -267 -20 0 -20 6 -20 271 0 252 1 270 18 267 16 -3 17 -25 20 -271z
m3050 33 c3 -257 6 -270 64 -270 18 0 28 -5 28 -15 0 -23 -72 -20 -101 4 -24
19 -24 20 -27 271 -3 238 -2 251 15 248 17 -3 18 -21 21 -238z m440 218 c3
-14 -3 -18 -24 -18 -15 0 -36 -7 -46 -17 -16 -15 -18 -36 -18 -250 0 -226 -1
-233 -20 -233 -19 0 -20 7 -20 229 0 128 4 241 10 256 17 46 111 71 118 33z
m-6988 -253 c0 -258 -1 -265 -20 -265 -19 0 -20 7 -20 265 0 258 1 265 20 265
19 0 20 -7 20 -265z m1568 -3 c2 -257 2 -262 -18 -262 -20 0 -20 6 -20 266 0
247 1 265 18 262 16 -3 17 -25 20 -266z m3180 0 c2 -257 2 -262 -18 -262 -20
0 -20 6 -20 266 0 247 1 265 18 262 16 -3 17 -25 20 -266z m1130 0 c2 -257 2
-262 -18 -262 -20 0 -20 6 -20 266 0 247 1 265 18 262 16 -3 17 -25 20 -266z
m-2138 233 c0 -20 -5 -25 -25 -25 -18 0 -25 5 -25 18 0 10 3 22 7 25 3 4 15 7
25 7 13 0 18 -7 18 -25z m-735 -149 c37 -24 55 -58 62 -115 l6 -51 -52 0 c-38
0 -51 4 -49 13 3 6 17 13 31 15 32 4 34 20 10 69 -19 40 -64 64 -105 56 -42
-8 -76 -49 -89 -106 -28 -130 55 -221 174 -190 31 9 40 8 44 -4 9 -22 -4 -27
-80 -31 -62 -3 -77 -1 -107 20 -48 32 -74 88 -74 163 1 84 38 146 104 174 32
14 94 7 125 -13z m-3371 8 c9 -3 16 -13 16 -21 0 -10 -8 -12 -34 -8 -75 14
-126 -45 -126 -146 0 -98 48 -156 121 -146 34 4 40 3 37 -11 -2 -13 -16 -18
-53 -20 -96 -5 -149 58 -148 178 0 39 6 77 16 95 16 32 53 69 77 78 21 8 75 8
94 1z m723 -5 c36 -13 71 -46 90 -84 21 -40 21 -151 0 -192 -18 -34 -62 -73
-83 -73 -19 0 -18 36 1 44 8 3 24 20 35 38 38 63 20 186 -34 223 -24 18 -85
20 -119 4 -78 -35 -90 -216 -18 -261 12 -7 21 -21 21 -30 0 -39 -55 -10 -91
48 -28 46 -31 152 -6 201 41 77 126 112 204 82z m486 -22 c75 -70 76 -214 3
-292 -30 -31 -39 -35 -85 -35 -39 0 -51 4 -51 15 0 10 10 15 33 15 67 0 109
58 109 150 0 92 -42 150 -109 150 -23 0 -33 5 -33 15 0 11 12 15 49 15 42 0
55 -5 84 -33z m432 11 c35 -30 44 -79 45 -221 0 -116 -1 -118 -22 -115 -20 3
-21 8 -19 91 l2 87 -61 0 c-35 0 -73 -6 -90 -15 -57 -30 -51 -111 10 -131 47
-16 50 -34 5 -34 -95 0 -137 113 -64 174 30 25 105 46 166 46 33 0 35 1 28 28
-16 68 -70 96 -136 73 -42 -15 -49 -14 -49 4 0 22 35 34 102 34 45 1 62 -4 83
-21z m1066 6 c48 -24 59 -65 59 -214 0 -123 -1 -130 -20 -130 -19 0 -20 7 -20
119 0 165 -16 201 -89 201 -20 0 -31 5 -31 14 0 28 56 34 101 10z m252 -24
c27 -30 27 -31 27 -175 0 -138 -1 -145 -20 -145 -19 0 -20 7 -20 134 0 120 -2
136 -21 160 -16 20 -29 26 -60 26 -27 0 -39 4 -39 14 0 38 95 28 133 -14z
m805 23 c2 -9 -9 -13 -35 -13 -72 0 -113 -54 -113 -150 0 -96 41 -150 113
-150 55 0 43 -24 -15 -28 -82 -5 -139 65 -142 173 -2 115 54 188 143 183 25
-2 46 -9 49 -15z m692 -3 c0 -16 -7 -20 -37 -20 -77 0 -133 -60 -133 -142 0
-87 63 -153 138 -145 26 2 32 -1 32 -16 0 -17 -6 -19 -58 -15 -102 7 -155 69
-155 178 0 107 71 178 181 180 25 0 32 -4 32 -20z m370 -8 c34 -34 43 -89 38
-232 -3 -81 -6 -95 -20 -98 -16 -3 -18 6 -18 87 l0 91 -60 0 c-35 0 -74 -7
-90 -15 -57 -30 -51 -111 10 -131 45 -15 51 -34 10 -34 -81 0 -127 68 -93 138
23 47 70 71 157 79 36 3 66 10 66 15 0 24 -31 78 -51 88 -21 12 -66 9 -116 -6
-17 -4 -23 -2 -23 8 0 23 39 37 103 37 51 1 62 -2 87 -27z m1101 1 c41 -35 59
-79 59 -144 0 -74 -18 -126 -57 -159 -27 -24 -43 -30 -81 -30 -48 0 -82 13
-69 26 4 5 27 7 50 5 35 -2 48 3 70 25 69 69 55 231 -22 264 -18 7 -45 10 -66
6 -38 -7 -47 6 -17 23 34 21 98 13 133 -16z m679 -1 c34 -34 43 -89 38 -232
-3 -81 -6 -95 -20 -98 -16 -3 -18 6 -18 87 l0 91 -60 0 c-35 0 -74 -7 -90 -15
-57 -30 -51 -111 10 -131 45 -15 51 -34 10 -34 -81 0 -127 68 -93 138 23 47
70 71 157 79 36 3 66 10 66 15 0 24 -31 78 -51 88 -21 12 -66 9 -116 -6 -17
-4 -23 -2 -23 8 0 23 39 37 103 37 51 1 62 -2 87 -27z m1099 18 c40 -11 77
-43 98 -83 22 -43 20 -148 -4 -194 -25 -48 -68 -82 -85 -65 -9 9 -6 18 14 39
39 42 48 66 48 129 0 40 -6 67 -21 90 -26 43 -47 54 -99 54 -52 0 -73 -11 -99
-54 -38 -61 -22 -187 28 -218 25 -15 28 -48 5 -48 -30 0 -82 66 -93 120 -32
151 74 269 208 230z m807 -14 c33 -22 44 -74 44 -213 0 -116 -1 -123 -20 -123
-19 0 -20 7 -20 119 0 165 -16 201 -89 201 -32 0 -44 23 -18 34 19 9 77 -2
103 -18z m233 -11 c25 -25 26 -30 29 -175 3 -146 3 -150 -17 -150 -20 0 -21 5
-21 134 0 119 -2 136 -20 159 -14 18 -32 27 -57 29 -39 3 -56 23 -26 31 35 10
87 -3 112 -28z m-8629 -167 c0 -169 -3 -198 -20 -235 -29 -64 -69 -85 -157
-81 -74 3 -98 14 -84 36 6 10 19 10 59 1 45 -9 57 -8 89 8 65 31 73 60 73 276
0 180 1 187 20 187 19 0 20 -7 20 -192z m2430 139 c0 -30 -3 -109 -7 -175 -5
-110 -8 -122 -25 -122 -17 0 -18 12 -18 175 l0 175 25 0 c24 0 25 -3 25 -53z
m1560 -122 c0 -168 -1 -175 -20 -175 -19 0 -20 7 -20 175 0 168 1 175 20 175
19 0 20 -7 20 -175z m1620 83 c0 -51 -3 -164 -7 -250 -6 -145 -8 -158 -25
-158 -17 0 -18 14 -18 250 l0 250 25 0 c25 0 25 0 25 -92z m1130 77 c0 -10
-11 -15 -35 -15 -24 0 -35 5 -35 15 0 10 11 15 35 15 24 0 35 -5 35 -15z m150
0 c0 -10 -11 -15 -35 -15 -24 0 -35 5 -35 15 0 10 11 15 35 15 24 0 35 -5 35
-15z m198 -2 c2 -9 -8 -13 -32 -13 -34 0 -44 8 -29 24 11 11 56 2 61 -11z
m152 2 c0 -10 -11 -15 -35 -15 -24 0 -35 5 -35 15 0 10 11 15 35 15 24 0 35
-5 35 -15z m678 -163 c2 -167 2 -172 -18 -172 -19 0 -20 6 -20 176 0 162 1
175 18 172 15 -3 17 -21 20 -176z m122 164 c0 -7 -14 -16 -32 -20 -36 -7 -43
-3 -35 19 8 19 67 21 67 1z m176 3 c3 -6 3 -85 -1 -175 -7 -152 -9 -164 -26
-164 -18 0 -19 10 -19 168 0 93 3 172 7 175 10 11 31 8 39 -4z m-2193 -1146
c-111 -2 -295 -2 -410 0 -114 1 -23 2 202 2 226 0 319 -1 208 -2z m-4150 -150
c-13 -2 -33 -2 -45 0 -13 2 -3 4 22 4 25 0 35 -2 23 -4z m-720 -20 c-13 -2
-33 -2 -45 0 -13 2 -3 4 22 4 25 0 35 -2 23 -4z m17 -22 c0 -10 -148 -26 -157
-17 -4 3 12 6 35 6 23 0 42 5 42 10 0 6 18 10 40 10 22 0 40 -4 40 -9z m-320
-31 c0 -5 -18 -10 -40 -10 -22 0 -40 5 -40 10 0 6 18 10 40 10 22 0 40 -4 40
-10z m7385 -350 c230 -73 431 -247 525 -453 178 -394 42 -843 -324 -1072 -297
-185 -686 -160 -968 62 -217 171 -344 479 -309 748 48 356 286 631 625 721 81
22 107 24 236 20 115 -3 160 -8 215 -26z m-8865 -152 c0 -4 -4 -8 -9 -8 -6 0
-12 4 -15 8 -3 5 1 9 9 9 8 0 15 -4 15 -9z m120 -9 c0 -11 -4 -18 -10 -14 -5
3 -7 12 -3 20 7 21 13 19 13 -6z m-87 -64 c0 -6 -7 -11 -16 -11 -16 -2 -16 -1
-1 3 14 4 15 7 3 15 -11 7 -11 9 -1 6 8 -2 14 -8 15 -13z m-83 -95 c0 -5 -5
-10 -11 -10 -5 0 -7 5 -4 10 3 6 8 10 11 10 2 0 4 -4 4 -10z m4254 -799 c3 -4
-6 -6 -19 -3 -14 2 -25 6 -25 8 0 8 39 4 44 -5z m-84 -11 c0 -5 -18 -10 -40
-10 -22 0 -40 5 -40 10 0 6 18 10 40 10 22 0 40 -4 40 -10z m-205 -10 c43 -7
39 -7 -36 -6 -48 0 -85 4 -82 9 5 9 52 8 118 -3z m-3730 -220 c3 -5 1 -10 -4
-10 -6 0 -11 5 -11 10 0 6 2 10 4 10 3 0 8 -4 11 -10z m-30 -90 c-3 -5 2 -10
9 -13 8 -3 20 -16 27 -29 10 -20 8 -19 -20 6 -17 16 -29 32 -26 34 2 3 0 14
-6 26 -10 20 -9 20 5 2 9 -10 13 -22 11 -26z m105 -100 c0 -5 -4 -10 -10 -10
-5 0 -10 5 -10 10 0 6 5 10 10 10 6 0 10 -4 10 -10z m85 -80 c27 -30 12 -34
-15 -5 -13 14 -19 25 -13 25 5 0 18 -9 28 -20z"/>
<path d="M8845 2005 c-294 -56 -530 -258 -626 -538 -158 -460 117 -953 593
-1062 103 -24 270 -22 373 5 290 73 522 305 595 594 25 100 27 275 4 379 -20
90 -79 219 -139 302 -175 245 -502 376 -800 320z m-107 -325 c80 -36 106 -151
47 -209 -30 -31 -55 -21 -68 25 -18 60 -32 79 -62 82 -33 4 -55 -18 -55 -55 0
-18 -6 -23 -24 -23 -25 0 -56 -32 -56 -57 0 -7 9 -22 21 -34 18 -18 19 -25 10
-46 -15 -33 -14 -49 5 -67 20 -21 58 -20 75 1 18 22 74 44 93 37 22 -9 39 -60
33 -102 -15 -90 -118 -121 -209 -63 -89 56 -130 171 -108 299 17 100 59 168
129 204 63 33 109 35 169 8z m692 -18 c83 -52 135 -205 110 -325 -24 -120
-116 -203 -213 -194 -26 2 -56 12 -67 22 -30 27 -44 90 -29 127 22 55 51 54
132 -5 48 -34 100 18 73 72 -14 26 -14 30 4 46 36 33 23 80 -26 94 -16 5 -28
14 -26 21 1 7 -4 23 -13 37 -13 19 -23 23 -48 21 -32 -3 -45 -20 -64 -82 -4
-16 -16 -34 -26 -40 -15 -9 -23 -6 -44 18 -22 26 -25 36 -21 88 3 47 10 64 33
88 55 57 145 62 225 12z m-756 -108 c9 -8 16 -27 16 -42 1 -36 23 -62 91 -105
126 -79 150 -161 124 -427 -18 -184 -19 -320 -4 -390 17 -79 4 -82 -20 -5 -20
65 -22 87 -20 330 2 223 0 268 -15 312 -38 113 -143 159 -214 93 -27 -24 -37
-28 -53 -20 -25 14 -24 42 1 65 26 24 25 34 -5 45 -52 20 -37 77 17 66 27 -5
28 -4 28 34 0 33 14 56 37 60 1 0 9 -7 17 -16z m684 -42 c3 -42 4 -43 31 -37
54 12 68 -45 16 -65 -30 -12 -31 -21 -5 -45 24 -22 23 -58 -3 -63 -9 -2 -31 8
-47 22 -41 34 -64 40 -105 26 -50 -17 -102 -82 -115 -145 -7 -32 -10 -149 -8
-301 2 -220 1 -256 -16 -312 -19 -64 -44 -100 -33 -46 20 87 25 191 16 287
-19 201 -22 361 -9 415 15 65 59 126 109 151 65 33 98 68 106 108 9 50 13 55
38 51 18 -2 23 -11 25 -46z"/>
<path d="M9105 8439 c4 -6 -1 -16 -11 -24 -11 -7 -16 -16 -13 -19 3 -3 16 5
28 18 19 20 20 24 6 30 -10 3 -14 2 -10 -5z"/>
<path d="M8750 8249 c0 -5 5 -7 10 -4 6 3 10 8 10 11 0 2 -4 4 -10 4 -5 0 -10
-5 -10 -11z"/>
<path d="M7168 7753 c6 -2 18 -2 25 0 6 3 1 5 -13 5 -14 0 -19 -2 -12 -5z"/>
<path d="M7080 7740 c0 -5 9 -10 20 -10 11 0 20 5 20 10 0 6 -9 10 -20 10 -11
0 -20 -4 -20 -10z"/>
<path d="M6625 7640 c3 -5 8 -10 11 -10 2 0 4 5 4 10 0 6 -5 10 -11 10 -5 0
-7 -4 -4 -10z"/>
<path d="M6158 7523 c7 -3 16 -2 19 1 4 3 -2 6 -13 5 -11 0 -14 -3 -6 -6z"/>
<path d="M6138 2553 c34 -2 90 -2 125 0 34 2 6 3 -63 3 -69 0 -97 -1 -62 -3z"/>
<path d="M6598 2553 c23 -2 61 -2 85 0 23 2 4 4 -43 4 -47 0 -66 -2 -42 -4z"/>
<path d="M2690 2330 c-12 -8 -11 -10 8 -10 12 0 22 5 22 10 0 13 -11 13 -30 0z"/>
<path d="M1178 2213 c7 -3 16 -2 19 1 4 3 -2 6 -13 5 -11 0 -14 -3 -6 -6z"/>
<path d="M1838 2210 c-1 -5 -73 -14 -158 -20 -85 -6 -157 -16 -161 -21 -3 -6
-27 -11 -53 -12 -37 -2 -46 -5 -46 -20 0 -13 5 -17 18 -13 9 3 50 8 90 12 54
5 72 10 72 21 0 13 13 14 80 8 66 -6 80 -5 80 7 0 11 30 18 123 30 l122 15
-82 2 c-45 0 -83 -3 -85 -9z"/>
<path d="M1420 2190 c0 -5 5 -10 10 -10 6 0 10 5 10 10 0 6 -4 10 -10 10 -5 0
-10 -4 -10 -10z"/>
<path d="M1368 2163 c7 -3 16 -2 19 1 4 3 -2 6 -13 5 -11 0 -14 -3 -6 -6z"/>
<path d="M7574 1866 c2 -17 9 -87 15 -156 7 -69 16 -144 21 -168 6 -23 10 -54
10 -68 0 -14 7 -32 15 -40 8 -9 15 -22 15 -30 0 -8 -7 -17 -15 -20 -8 -4 -15
-15 -15 -25 0 -10 -4 -19 -9 -19 -5 0 -19 -27 -31 -60 -12 -33 -27 -63 -31
-66 -5 -3 -9 -13 -9 -23 0 -22 -23 -71 -33 -71 -5 0 -5 -6 -1 -12 6 -10 4 -10
-7 0 -7 6 -19 12 -26 12 -11 0 -11 -6 0 -32 13 -31 12 -33 -16 -53 -35 -23
-54 -51 -44 -61 4 -4 27 11 50 34 34 33 46 39 55 30 19 -19 15 -32 -23 -68
-19 -19 -35 -38 -35 -42 0 -18 26 -6 62 29 32 31 39 34 53 23 14 -12 11 -18
-26 -56 -58 -59 -42 -80 18 -22 l45 43 33 -39 c52 -59 61 -95 36 -151 -16 -37
-29 -50 -66 -66 -73 -32 -97 -19 -257 138 -76 75 -141 132 -147 129 -7 -4 -9
-1 -5 8 4 11 0 16 -11 16 -9 0 -14 4 -11 8 3 5 -5 8 -17 7 -12 -1 -26 3 -30 9
-5 7 -7 3 -5 -9 2 -11 8 -24 13 -28 6 -5 4 -7 -5 -4 -8 2 -15 10 -15 17 0 7
-8 14 -17 16 -11 1 -18 -4 -18 -14 0 -12 -3 -13 -8 -5 -10 16 -44 12 -60 -7
-10 -13 -11 -13 -6 3 5 14 1 17 -22 16 -16 0 -23 -3 -16 -6 6 -2 12 -8 12 -13
0 -13 -34 -6 -48 10 -10 11 -12 11 -6 1 6 -11 1 -13 -27 -6 -19 4 -41 7 -49 6
-8 -1 -115 -4 -237 -7 -135 -4 -223 -10 -223 -15 0 -6 4 -8 9 -5 5 4 7 -2 5
-11 -7 -27 61 -159 123 -241 99 -129 272 -246 428 -288 91 -25 276 -30 372
-10 167 34 292 102 418 230 77 78 99 108 143 196 63 126 81 194 89 322 14 235
-65 447 -230 616 -34 34 -79 75 -100 89 -34 24 -41 25 -60 14 -18 -11 -20 -11
-9 0 16 17 15 26 -2 26 -10 0 -14 -10 -12 -31z m-75 -786 c11 -24 11 -24 -3
-6 -9 11 -16 24 -16 30 0 12 5 7 19 -24z m-328 -107 c13 -16 12 -17 -3 -4 -10
7 -18 15 -18 17 0 8 8 3 21 -13z"/>
<path d="M391 1584 c0 -11 3 -14 6 -6 3 7 2 16 -1 19 -3 4 -6 -2 -5 -13z"/>
<path d="M371 1504 c0 -11 3 -14 6 -6 3 7 2 16 -1 19 -3 4 -6 -2 -5 -13z"/>
<path d="M335 1432 c3 -3 -1 -12 -7 -21 -8 -10 -4 -9 10 3 26 23 26 23 7 23
-8 0 -13 -3 -10 -5z"/>
<path d="M349 1403 c-13 -16 -12 -17 4 -4 9 7 17 15 17 17 0 8 -8 3 -21 -13z"/>
<path d="M373 1345 c0 -7 6 -11 14 -8 7 3 13 6 13 8 0 2 -6 5 -13 8 -8 3 -14
-1 -14 -8z"/>
<path d="M310 1318 c0 -10 6 -18 13 -18 8 0 7 -4 -3 -10 -8 -5 -10 -10 -5 -10
6 1 19 8 30 17 16 12 16 14 3 10 -11 -4 -21 0 -27 11 -10 16 -10 16 -11 0z"/>
<path d="M275 1268 c5 -17 4 -19 -4 -8 -8 12 -13 12 -30 -4 -11 -10 -19 -21
-18 -25 1 -3 -1 -6 -5 -6 -4 0 -55 -47 -113 -105 l-105 -105 0 -205 0 -205
189 190 c162 163 254 266 212 241 -7 -5 -11 4 -11 27 0 19 -6 40 -14 46 -8 6
-17 26 -20 44 -4 18 -9 46 -13 62 -7 38 -22 57 -39 51 -8 -3 -11 0 -7 10 3 9
-1 14 -12 14 -12 0 -15 -6 -10 -22z"/>
<path d="M407 1096 c-4 -9 -3 -15 2 -12 12 8 33 -19 23 -30 -4 -4 1 -2 11 5
13 10 15 17 6 27 -6 8 -15 12 -19 9 -5 -3 -10 0 -12 7 -3 7 -7 5 -11 -6z"/>
<path d="M464 1048 l-29 -33 31 28 c17 15 34 24 39 20 4 -5 5 -2 1 5 -9 16 -8
17 -42 -20z"/>
<path d="M405 1060 c-3 -5 -1 -10 4 -10 6 0 11 5 11 10 0 6 -2 10 -4 10 -3 0
-8 -4 -11 -10z"/>
<path d="M437 1003 c-12 -11 3 -22 21 -16 14 6 15 4 5 -8 -10 -13 -10 -16 1
-16 8 0 13 7 12 15 -3 16 -30 34 -39 25z"/>
<path d="M357 941 l-58 -58 49 0 50 0 -3 34 c-2 34 22 61 40 45 5 -4 5 -2 1 5
-4 7 -14 9 -24 6 -15 -6 -15 -5 -3 10 27 34 5 16 -52 -42z"/>
<path d="M6345 990 c3 -5 8 -10 11 -10 2 0 4 5 4 10 0 6 -5 10 -11 10 -5 0 -7
-4 -4 -10z"/>
<path d="M6738 993 c12 -2 32 -2 45 0 12 2 2 4 -23 4 -25 0 -35 -2 -22 -4z"/>
<path d="M6086 978 c4 -7 3 -8 -5 -4 -6 4 -46 4 -89 0 -74 -8 -76 -9 -32 -15
l45 -6 -47 -1 c-27 -1 -48 3 -48 8 0 18 -26 11 -48 -13 -12 -13 -22 -36 -22
-51 0 -49 -29 -87 -83 -107 -15 -7 -30 -21 -33 -35 -10 -39 -60 -74 -105 -74
-22 0 -54 -7 -71 -16 -42 -22 -90 -11 -122 27 -14 17 -26 40 -26 53 0 12 -9
39 -20 61 -11 22 -20 55 -20 75 -1 28 -3 32 -11 18 -7 -12 -5 -32 6 -66 21
-63 8 -119 -36 -156 -35 -30 -98 -35 -139 -11 -14 8 -41 14 -60 15 -48 0 -99
33 -106 68 -4 21 -17 33 -47 48 -46 21 -78 66 -79 113 -1 17 -7 32 -15 35 -8
3 -12 2 -9 -2 2 -4 -50 -9 -117 -10 -72 -2 -126 -8 -132 -14 -7 -8 -6 -9 3 -4
6 4 12 3 12 -3 0 -5 19 -12 43 -14 32 -3 30 -4 -10 -2 l-52 2 26 -51 c118
-234 322 -391 574 -442 128 -26 286 -16 409 25 162 55 311 164 406 297 47 66
119 212 110 222 -3 3 0 12 7 20 8 11 8 14 0 9 -6 -4 -13 -2 -15 5 -3 7 -7 5
-11 -6 -5 -12 -3 -15 6 -10 9 5 9 4 0 -6 -16 -17 -53 -23 -53 -9 0 5 4 8 9 4
6 -3 15 4 21 15 9 16 8 20 -5 20 -10 0 -13 -5 -9 -12z m-1220 -71 c4 -4 2 -7
-5 -7 -7 0 -9 -5 -5 -12 4 -7 -3 -4 -17 7 -13 11 -26 21 -29 23 -2 2 7 2 22 0
15 -2 30 -7 34 -11z m-73 -4 c-7 -2 -19 -2 -25 0 -7 3 -2 5 12 5 14 0 19 -2
13 -5z"/>
<path d="M5624 973 c4 -7 3 -13 -3 -13 -5 0 -8 -8 -7 -17 2 -10 -1 -31 -7 -48
-5 -16 -9 -52 -8 -79 2 -41 0 -48 -14 -42 -9 3 -19 6 -21 6 -2 0 -4 11 -4 24
0 25 -16 36 -55 36 -22 0 -40 22 -28 34 4 3 24 6 45 6 32 0 40 4 48 26 12 29
4 48 -16 40 -7 -3 -16 -1 -19 5 -7 10 -50 8 -61 -4 -4 -4 -16 -7 -26 -7 -12 0
-16 -4 -12 -12 5 -7 2 -9 -9 -5 -32 12 -38 -72 -7 -103 13 -13 20 -33 20 -59
0 -63 57 -91 110 -54 15 10 39 16 61 14 49 -3 79 25 79 74 0 27 3 33 15 29 22
-9 71 14 84 39 10 20 12 111 2 101 -2 -2 -10 1 -17 7 -8 7 -14 7 -19 -1 -3 -5
-17 -10 -30 -10 -13 0 -27 -5 -31 -12 -4 -7 -3 -8 4 -4 7 4 12 2 12 -4 0 -7
-8 -9 -20 -5 -13 4 -20 2 -20 -7 0 -10 -2 -10 -9 1 -5 8 -14 10 -21 6 -9 -6
-11 -4 -6 4 5 7 14 10 22 7 17 -6 19 20 2 30 -7 4 -8 3 -4 -4 10 -16 -7 -15
-23 1 -11 10 -13 10 -7 0z m136 -22 c-7 -14 -6 -21 3 -25 6 -3 2 -3 -10 -1
-12 3 -24 1 -28 -5 -3 -5 -14 -10 -23 -9 -14 0 -13 2 3 8 11 5 29 18 39 30 24
26 30 27 16 2z m-226 -30 c-5 -3 -12 -10 -15 -14 -4 -4 -9 -1 -13 8 -3 9 -2
13 4 10 6 -3 10 -1 10 5 0 6 5 8 11 4 6 -3 7 -9 3 -13z"/>
<path d="M5120 940 c0 -6 -9 -10 -21 -10 -12 0 -17 -4 -14 -11 4 -6 13 -8 21
-5 7 3 16 1 19 -4 3 -4 -1 -11 -7 -13 -9 -4 -10 -6 -1 -6 24 -2 39 44 17 53
-8 3 -14 1 -14 -4z"/>
<path d="M5260 935 c-10 -12 -16 -13 -26 -4 -11 9 -14 8 -14 -4 0 -21 24 -28
47 -12 15 11 20 11 20 1 0 -7 -5 -13 -11 -14 -6 0 -23 -3 -38 -5 -15 -2 -25 0
-22 4 7 12 -3 11 -27 -1 -25 -14 -25 -54 1 -80 21 -21 27 -50 9 -50 -22 0 -47
20 -58 47 -6 15 -26 35 -44 43 -18 8 -38 28 -45 43 -13 26 -17 28 -65 25 -57
-3 -63 -13 -40 -61 15 -31 56 -51 84 -42 16 5 19 1 19 -29 0 -50 30 -78 79
-75 22 2 46 -4 61 -14 14 -9 39 -17 56 -17 65 0 96 89 55 155 -18 29 -18 31 1
58 19 26 19 27 1 34 -10 3 -21 8 -24 9 -4 2 -12 -3 -19 -11z m-254 -33 c-21
-2 -42 0 -47 5 -4 4 13 6 39 3 l47 -5 -39 -3z"/>
<path d="M480 810 c0 -5 5 -10 11 -10 5 0 7 5 4 10 -3 6 -8 10 -11 10 -2 0 -4
-4 -4 -10z"/>
<path d="M566 743 c-6 -14 -5 -15 5 -6 7 7 10 15 7 18 -3 3 -9 -2 -12 -12z"/>
<path d="M487 713 c-3 -5 -5 -21 -5 -37 0 -28 1 -29 14 -11 8 10 14 22 14 27
0 4 8 8 18 9 11 0 12 2 4 6 -7 3 -20 -1 -29 -9 -15 -11 -16 -11 -10 5 6 17 2
24 -6 10z"/>
<path d="M561 694 c0 -11 3 -14 6 -6 3 7 2 16 -1 19 -3 4 -6 -2 -5 -13z"/>
<path d="M610 670 c5 -10 6 -20 2 -24 -3 -4 2 -4 12 0 13 5 14 9 6 14 -7 4
-10 12 -7 17 3 5 0 10 -8 10 -10 0 -11 -5 -5 -17z"/>
<path d="M570 661 c0 -6 4 -13 10 -16 6 -3 7 1 4 9 -7 18 -14 21 -14 7z"/>
<path d="M2785 650 c-3 -5 -1 -10 4 -10 6 0 11 5 11 10 0 6 -2 10 -4 10 -3 0
-8 -4 -11 -10z"/>
<path d="M2595 590 c-10 -11 -16 -22 -14 -24 2 -2 12 7 22 20 22 29 17 32 -8
4z"/>
<path d="M816 522 c-3 -5 1 -9 9 -9 8 0 12 4 9 9 -3 4 -7 8 -9 8 -2 0 -6 -4
-9 -8z"/>
<path d="M705 470 c3 -5 8 -10 11 -10 2 0 4 5 4 10 0 6 -5 10 -11 10 -5 0 -7
-4 -4 -10z"/>
</g>
</svg>
