<?xml version="1.0" standalone="no"?>
<!DOCTYPE svg PUBLIC "-//W3C//DTD SVG 20010904//EN"
 "http://www.w3.org/TR/2001/REC-SVG-20010904/DTD/svg10.dtd">
<svg version="1.0" xmlns="http://www.w3.org/2000/svg"
 width="1024.000000pt" height="1024.000000pt" viewBox="0 0 1024.000000 1024.000000"
 preserveAspectRatio="xMidYMid meet">
<metadata>
Created by potrace 1.11, written by Peter Selinger 2001-2013
</metadata>
<g transform="translate(0.000000,1024.000000) scale(0.100000,-0.100000)"
fill="#000000" stroke="none">
<path d="M0 5120 l0 -5120 5120 0 5120 0 0 5120 0 5120 -5120 0 -5120 0 0
-5120z m1390 4601 c318 -84 559 -345 615 -666 19 -110 19 -179 0 -290 -58
-329 -298 -584 -635 -671 -96 -25 -291 -23 -395 5 -372 97 -627 428 -627 811
0 418 300 766 717 830 84 13 237 4 325 -19z m1798 4 c317 -75 570 -346 627
-670 19 -110 19 -179 0 -290 -57 -325 -293 -578 -620 -666 -112 -30 -297 -30
-410 0 -372 97 -627 428 -627 811 0 418 299 765 717 830 76 11 232 4 313 -15z
m1729 14 c393 -53 695 -380 720 -779 25 -400 -236 -756 -632 -861 -104 -28
-288 -30 -389 -6 -256 63 -478 247 -582 484 -86 193 -86 473 -1 665 100 225
293 398 522 467 128 39 235 48 362 30z m1831 -3006 c12 -10 126 -220 255 -468
694 -1335 719 -1384 712 -1404 -3 -11 -38 -50 -77 -86 -71 -66 -99 -77 -130
-52 -8 6 -141 234 -294 505 l-279 494 -5 -1185 c-4 -983 -7 -1187 -19 -1200
-20 -25 -206 -25 -233 0 -17 15 -18 81 -18 1699 l0 1683 22 15 c29 20 41 20
66 -1z m2690 1 l22 -15 0 -1681 c0 -1551 -1 -1683 -17 -1700 -23 -25 -197 -27
-225 -1 -17 15 -18 66 -18 1202 0 741 -4 1181 -9 1176 -6 -6 -132 -226 -282
-490 -149 -264 -278 -488 -287 -497 -30 -35 -63 -22 -140 55 -39 40 -72 81
-72 92 0 16 219 444 877 1715 83 159 103 178 151 144z m-7145 -29 c342 -60
684 -278 861 -546 161 -245 245 -475 292 -794 22 -149 25 -550 5 -695 -72
-524 -268 -891 -614 -1153 -108 -81 -396 -207 -475 -207 -16 0 -35 6 -41 14
-16 19 -61 164 -61 197 0 33 9 40 90 69 192 67 381 204 498 359 69 92 157 260
202 386 127 359 133 931 14 1295 -118 360 -313 604 -589 736 -177 85 -243 99
-475 98 -217 0 -276 -11 -432 -78 -130 -56 -187 -96 -299 -206 -281 -277 -412
-647 -413 -1165 0 -323 44 -566 146 -800 134 -308 381 -544 662 -631 82 -26
88 -43 52 -147 -38 -109 -50 -127 -85 -127 -46 0 -148 37 -286 104 -143 70
-217 121 -313 217 -280 277 -444 656 -483 1115 -14 169 -6 497 16 644 57 389
196 695 422 931 222 231 487 361 818 400 102 11 386 3 488 -16z m3031 -37 c21
-30 22 -175 2 -204 -13 -18 -29 -22 -133 -27 -156 -9 -274 -29 -351 -60 -237
-97 -360 -265 -350 -480 5 -127 41 -193 176 -327 115 -114 205 -178 502 -355
404 -242 652 -433 730 -564 82 -137 117 -294 107 -474 -7 -122 -41 -276 -77
-348 -136 -268 -410 -455 -737 -504 -138 -21 -371 -19 -555 5 -84 10 -195 24
-247 30 -52 6 -101 16 -108 22 -20 17 -18 221 3 242 19 19 2 20 169 -3 297
-42 478 -54 604 -42 145 14 213 32 314 83 199 99 320 300 321 528 0 112 -16
170 -76 262 -96 149 -185 224 -513 428 -99 62 -245 154 -325 204 -358 224
-497 367 -562 576 -20 65 -23 95 -23 225 1 164 21 266 72 372 102 209 370 372
683 417 52 8 154 14 227 15 126 1 133 0 147 -21z m269 -4663 c303 -88 519
-319 593 -632 23 -98 15 -312 -16 -408 -75 -234 -233 -416 -451 -520 -223
-105 -492 -104 -714 5 -173 85 -299 211 -386 386 -186 377 -66 825 285 1059
208 138 457 178 689 110z m1810 0 c303 -88 519 -319 593 -632 23 -98 15 -312
-16 -408 -45 -141 -124 -268 -226 -366 -63 -60 -141 -115 -150 -107 -3 3 12
16 33 29 63 38 173 150 223 226 276 418 124 976 -324 1193 -128 62 -235 83
-391 78 -112 -4 -143 -9 -224 -37 -279 -94 -480 -316 -545 -599 -23 -102 -21
-278 4 -378 69 -276 273 -493 548 -586 65 -21 76 -28 44 -23 -90 12 -230 83
-341 174 -70 57 -160 178 -209 279 -177 373 -54 817 292 1047 208 138 457 178
689 110z"/>
<path d="M1015 9714 c-169 -37 -287 -104 -415 -233 -108 -109 -172 -216 -212
-356 -32 -115 -32 -315 0 -430 40 -140 104 -247 212 -356 132 -134 259 -203
434 -236 97 -18 270 -13 361 12 220 60 428 233 526 440 55 114 71 183 76 325
4 105 2 140 -16 215 -68 284 -268 501 -551 596 -83 28 -111 32 -220 35 -87 3
-146 -1 -195 -12z"/>
<path d="M2870 9724 c-331 -64 -583 -289 -672 -599 -32 -114 -32 -315 0 -428
43 -149 118 -273 234 -383 118 -112 252 -181 412 -211 105 -20 273 -13 374 16
262 76 477 288 562 556 31 98 39 290 16 400 -59 287 -269 520 -556 616 -83 28
-110 32 -220 35 -69 1 -136 0 -150 -2z"/>
<path d="M4680 9724 c-179 -35 -318 -105 -444 -223 -449 -425 -279 -1169 314
-1373 90 -31 102 -32 245 -33 127 0 162 3 229 23 271 78 482 287 568 562 20
65 23 95 23 230 0 135 -3 165 -23 230 -84 267 -275 461 -542 551 -83 28 -110
32 -220 35 -69 1 -136 0 -150 -2z"/>
<path d="M5195 2005 c-255 -56 -475 -235 -580 -470 -67 -151 -85 -371 -45
-531 97 -386 452 -646 848 -621 566 36 925 618 705 1141 -99 235 -313 416
-563 476 -100 23 -270 26 -365 5z"/>
</g>
</svg>
