<?xml version="1.0" standalone="no"?>
<!DOCTYPE svg PUBLIC "-//W3C//DTD SVG 20010904//EN"
 "http://www.w3.org/TR/2001/REC-SVG-20010904/DTD/svg10.dtd">
<svg version="1.0" xmlns="http://www.w3.org/2000/svg"
 width="1024.000000pt" height="1024.000000pt" viewBox="0 0 1024.000000 1024.000000"
 preserveAspectRatio="xMidYMid meet">
<metadata>
Created by potrace 1.11, written by Peter Selinger 2001-2013
</metadata>
<g transform="translate(0.000000,1024.000000) scale(0.100000,-0.100000)"
fill="#000000" stroke="none">
<path d="M0 5120 l0 -5120 5120 0 5120 0 0 5120 0 5120 -5120 0 -5120 0 0
-5120z m1310 4620 c326 -52 590 -286 682 -607 33 -113 33 -333 0 -447 -72
-249 -267 -465 -500 -554 -114 -44 -184 -56 -317 -56 -148 1 -226 19 -360 84
-177 86 -300 209 -385 385 -67 139 -84 212 -84 365 1 184 36 308 131 455 181
279 507 426 833 375z m1810 0 c326 -52 590 -286 682 -607 33 -113 33 -333 0
-446 -70 -245 -235 -437 -465 -542 -119 -54 -195 -69 -347 -69 -145 0 -225 16
-344 68 -227 100 -412 325 -473 574 -22 91 -22 293 0 384 105 427 518 705 947
638z m1830 -6 c166 -31 303 -100 422 -212 116 -110 181 -214 234 -372 25 -78
28 -98 28 -235 1 -178 -11 -230 -86 -385 -46 -95 -61 -115 -157 -211 -96 -95
-116 -110 -211 -156 -146 -71 -215 -87 -380 -87 -109 0 -150 4 -212 22 -253
72 -438 229 -547 464 -58 125 -75 202 -75 348 0 171 32 287 118 432 175 296
530 456 866 392z m1797 -2992 c6 -4 65 -111 131 -237 66 -127 283 -542 482
-924 255 -490 360 -701 356 -716 -3 -12 -37 -51 -75 -88 -55 -53 -75 -67 -100
-67 -38 0 -9 -46 -342 542 l-264 468 -5 -1184 c-4 -982 -7 -1186 -19 -1199
-20 -25 -206 -25 -233 0 -17 15 -18 81 -18 1696 0 1550 1 1682 17 1699 17 19
49 23 70 10z m2691 -8 l22 -15 0 -1681 c0 -1551 -1 -1683 -17 -1700 -23 -25
-197 -27 -225 -1 -17 15 -18 66 -18 1202 0 704 -4 1181 -9 1176 -5 -6 -131
-226 -281 -490 -150 -264 -279 -488 -288 -497 -29 -34 -63 -22 -139 51 -52 49
-73 76 -73 93 0 31 933 1837 962 1861 25 21 37 21 66 1z m-7116 -34 c419 -89
747 -341 940 -724 153 -303 220 -651 204 -1066 -23 -638 -227 -1089 -629
-1393 -108 -81 -396 -207 -475 -207 -16 0 -34 6 -40 13 -15 18 -62 167 -62
198 0 33 9 40 90 69 134 47 245 113 369 221 225 194 384 558 421 964 50 550
-72 1027 -343 1347 -120 141 -326 269 -512 318 -114 31 -366 39 -488 16 -317
-60 -561 -237 -730 -531 -95 -165 -158 -359 -193 -590 -21 -146 -24 -473 -5
-615 50 -374 170 -657 363 -856 142 -147 247 -214 450 -288 28 -10 50 -25 53
-37 7 -20 -37 -168 -61 -206 -20 -31 -54 -29 -161 8 -161 57 -327 151 -433
244 -236 208 -431 567 -499 917 -45 234 -53 643 -17 888 59 399 206 712 445
950 226 225 473 343 796 381 122 14 408 3 517 -21z m2981 -11 c34 -18 37 -28
37 -125 0 -118 -1 -119 -145 -129 -163 -10 -287 -31 -357 -61 -236 -99 -358
-267 -346 -478 7 -120 41 -187 157 -309 107 -111 211 -185 546 -387 256 -155
301 -184 455 -300 153 -116 229 -198 279 -303 65 -138 76 -191 75 -367 0 -273
-56 -426 -222 -611 -90 -99 -277 -212 -427 -259 -175 -53 -447 -65 -717 -30
-84 10 -195 24 -247 30 -52 6 -101 16 -108 22 -20 17 -18 221 3 242 19 19 2
20 169 -3 297 -42 478 -54 604 -42 145 14 213 32 314 83 183 92 301 271 322
488 14 148 -51 303 -185 440 -70 72 -230 183 -510 355 -324 199 -484 310 -582
404 -105 100 -155 176 -195 296 -25 74 -27 93 -27 240 0 133 4 174 22 240 59
217 196 364 433 466 161 70 304 96 582 107 27 1 58 -3 70 -9z"/>
<path d="M1058 9720 c-275 -50 -488 -207 -609 -449 -152 -305 -97 -673 138
-922 208 -220 528 -311 813 -229 274 78 492 297 572 576 33 114 33 314 0 429
-81 281 -313 508 -592 579 -76 20 -255 29 -322 16z m189 -191 c8 -14 13 -65
13 -125 0 -110 -8 -88 93 -238 15 -22 32 -56 37 -76 9 -31 15 -440 7 -440 -2
0 -25 11 -53 24 l-49 25 38 0 c36 1 37 2 37 41 l0 40 -51 0 c-66 0 -62 24 4
28 46 3 47 4 47 38 l0 34 -50 0 c-38 0 -50 4 -50 15 0 11 12 15 50 15 l50 0 0
40 0 40 -51 0 c-66 0 -62 24 4 28 37 2 47 7 47 21 0 37 -24 88 -67 143 -64 83
-73 112 -73 227 0 91 -2 101 -22 115 -15 11 -26 12 -40 5 -16 -8 -18 -23 -18
-108 0 -54 -5 -113 -11 -132 -7 -19 -38 -69 -70 -112 -48 -65 -59 -86 -59
-118 l0 -39 45 0 c33 0 45 -4 45 -15 0 -11 -12 -15 -45 -15 l-45 0 0 -40 0
-40 45 0 c33 0 45 -4 45 -15 0 -11 -12 -15 -45 -15 -45 0 -45 0 -45 -34 0 -34
1 -35 42 -38 59 -4 63 -28 4 -28 -42 0 -46 -2 -46 -25 0 -16 -6 -25 -16 -25
-13 0 -15 24 -12 193 l3 193 37 49 c97 129 93 117 97 244 2 65 8 122 14 130
30 36 94 31 114 -10z m-47 -429 c0 -349 -2 -400 -15 -400 -13 0 -15 51 -15
400 0 349 2 400 15 400 13 0 15 -51 15 -400z"/>
<path d="M2868 9720 c-332 -60 -584 -289 -669 -607 -30 -110 -30 -296 0 -406
64 -239 238 -446 457 -543 116 -51 200 -68 334 -68 156 0 231 18 370 86 93 46
116 63 206 152 82 83 108 117 147 192 72 141 92 223 92 384 0 111 -4 149 -23
215 -81 281 -313 508 -592 579 -76 20 -255 29 -322 16z m150 -192 c7 -7 12
-21 12 -32 0 -29 56 -123 79 -136 11 -5 42 -10 69 -10 35 0 66 -8 103 -28 178
-93 141 -354 -64 -459 -40 -20 -71 -27 -133 -31 -107 -6 -167 14 -237 77 -70
63 -97 81 -124 81 -22 0 -23 -4 -23 -72 0 -40 5 -90 10 -110 20 -70 7 -68 351
-68 l309 0 32 -29 c28 -25 32 -35 32 -78 0 -58 -22 -99 -60 -113 -14 -6 -162
-10 -334 -10 -282 0 -310 -1 -319 -17 -6 -11 -6 -24 0 -35 9 -16 26 -18 155
-18 165 0 203 -10 229 -60 25 -47 17 -74 -23 -78 -26 -3 -34 1 -41 21 -5 13
-17 27 -26 31 -9 3 -82 6 -161 6 -110 0 -152 4 -174 15 -53 28 -65 132 -21
187 l19 23 334 5 c183 3 334 7 336 8 2 1 2 14 0 30 l-3 27 -315 5 c-279 4
-319 7 -343 23 -49 32 -77 122 -77 250 0 126 44 175 133 148 170 -51 206 -51
265 4 l37 33 0 85 c0 82 -1 85 -41 143 -22 32 -46 74 -52 93 -13 38 -16 84 -5
94 11 11 58 8 71 -5z"/>
<path d="M4630 9711 c-251 -53 -457 -221 -569 -463 -57 -122 -75 -203 -74
-338 0 -143 18 -221 83 -355 298 -615 1168 -615 1470 0 54 110 71 180 77 320
8 185 -31 332 -126 478 -188 287 -527 428 -861 358z m-266 -755 c20 -38 18
-91 -4 -91 -10 0 -16 12 -18 35 -4 37 -17 51 -39 43 -10 -4 -13 -47 -13 -204
l0 -199 233 0 c221 0 233 -1 245 -20 12 -20 10 -20 -252 -20 -231 0 -265 2
-270 16 -12 31 -7 449 6 462 7 7 30 12 53 12 36 0 43 -4 59 -34z m176 -231 l5
69 34 -42 c29 -38 33 -48 28 -85 -11 -84 -99 -116 -158 -58 -28 29 -29 31 -29
138 l0 108 58 -100 57 -100 5 70z"/>
</g>
</svg>
